<?xml version="1.0" encoding="utf-8"?>
<!-- Generator: Adobe Illustrator 17.0.0, SVG Export Plug-In . SVG Version: 6.00 Build 0)  -->
<!DOCTYPE svg PUBLIC "-//W3C//DTD SVG 1.1 Basic//EN" "http://www.w3.org/Graphics/SVG/1.1/DTD/svg11-basic.dtd">
<svg version="1.1" baseProfile="basic" id="OBJECTS"
	 xmlns="http://www.w3.org/2000/svg" xmlns:xlink="http://www.w3.org/1999/xlink" x="0px" y="0px" width="143.619px"
	 height="143.618px" viewBox="0 0 143.619 143.618" xml:space="preserve">
<g>
	<g>
		<path id="XMLID_108_" fill="#3D83D9" d="M143.619,71.809c0-39.661-32.15-71.81-71.805-71.81c-39.667,0-71.814,32.148-71.814,71.81
			c0,39.656,32.148,71.81,71.814,71.81C111.469,143.619,143.619,111.465,143.619,71.809z"/>
		<g>
			<rect x="37.619" y="54.284" fill="#FFFFFF" width="16.623" height="47.507"/>
			<path fill="#FFFFFF" d="M45.931,30.531c-5.207,0-9.283,4.785-8.109,10.175c0.682,3.131,3.236,5.648,6.378,6.279
				c5.357,1.076,10.042-2.98,10.042-8.142C54.241,34.26,50.527,30.531,45.931,30.531z"/>
			<path fill="#FFFFFF" d="M108.875,68.878c-1.118-8.954-5.597-14.594-17.701-14.594c-8.591,0-12.007,1.34-13.977,5.09l0,0v-5.09
				H63.739v47.507h13.848V76.923c0-6.208,1.176-10.897,8.852-10.897c7.566,0,8.174,5.771,8.174,11.3v24.466h14.261
				C108.875,101.791,109.139,70.97,108.875,68.878z"/>
		</g>
	</g>
</g>
<g display="none">
	<g display="inline">
		
			<linearGradient id="SVGID_1_" gradientUnits="userSpaceOnUse" x1="-157.1292" y1="-11.2659" x2="-62.7848" y2="97.2648" gradientTransform="matrix(-1 0 0 -1 -38.1477 115.034)">
			<stop  offset="0" style="stop-color:#5D3FD2"/>
			<stop  offset="0.4244" style="stop-color:#B829A9"/>
			<stop  offset="0.5009" style="stop-color:#BE289D"/>
			<stop  offset="0.6383" style="stop-color:#D0257E"/>
			<stop  offset="0.7849" style="stop-color:#E62256"/>
			<stop  offset="0.8147" style="stop-color:#E83156"/>
			<stop  offset="0.8718" style="stop-color:#EE5755"/>
			<stop  offset="0.9495" style="stop-color:#F89554"/>
			<stop  offset="1" style="stop-color:#FFC153"/>
		</linearGradient>
		<path fill="url(#SVGID_1_)" d="M71.809,0.128c-39.704,0-71.898,32.194-71.898,71.913c0,39.705,32.194,71.897,71.898,71.897
			c39.706,0,71.898-32.193,71.898-71.897C143.707,32.322,111.515,0.128,71.809,0.128z"/>
		<g>
			<path fill="none" stroke="#FFFFFF" stroke-miterlimit="10" d="M51.232,106.912L51.232,106.912L51.232,106.912L51.232,106.912z
				 M92.387,34.034L92.387,34.034L92.387,34.034L92.387,34.034z"/>
			<g>
				<path fill="#FFFFFF" d="M71.809,97.707c14.158,0,25.677-11.513,25.677-25.666c0-14.161-11.519-25.682-25.677-25.682
					c-14.158,0-25.676,11.521-25.676,25.682C46.133,86.194,57.651,97.707,71.809,97.707z M52.361,72.041
					c0-10.732,8.724-19.463,19.448-19.463s19.449,8.731,19.449,19.463c0,10.724-8.725,19.449-19.449,19.449
					S52.361,82.766,52.361,72.041z"/>
			</g>
			<path fill="#FFFFFF" d="M97.417,114.683H46.202c-9.612,0-17.432-7.82-17.432-17.432V46.818c0-9.612,7.82-17.432,17.432-17.432
				h51.215c9.612,0,17.432,7.82,17.432,17.432v50.433C114.848,106.863,107.029,114.683,97.417,114.683z M46.202,35.746
				c-6.104,0-11.072,4.967-11.072,11.071v50.433c0,6.104,4.967,11.072,11.072,11.072h51.215c6.104,0,11.071-4.967,11.071-11.072
				V46.818c0-6.104-4.967-11.071-11.071-11.071H46.202z"/>
		</g>
		<path fill="#FFFFFF" d="M97.834,43.431c-2.245,0-4.053,1.828-4.053,4.058c0,2.244,1.808,4.048,4.053,4.048
			c2.229,0,4.057-1.804,4.057-4.048C101.892,45.259,100.063,43.431,97.834,43.431z"/>
	</g>
</g>
<g display="none">
	<g display="inline">
		<path id="XMLID_21_" fill="#395196" d="M143.619,71.804C143.619,32.148,111.471,0,71.809,0C32.149,0,0,32.148,0,71.804
			c0,39.657,32.149,71.814,71.809,71.814C111.471,143.618,143.619,111.461,143.619,71.804z"/>
		<path id="XMLID_19_" fill="#FFFFFF" d="M78.136,54.799v-6.802c0-3.313,2.211-4.087,3.759-4.087c1.553,0,9.547,0,9.547,0V29.344
			l-13.144-0.058c-14.589,0-17.902,10.87-17.902,17.829v7.685h-8.434v17.015h8.507c0,19.279,0,42.528,0,42.528h17.01
			c0,0,0-23.485,0-42.528h12.625l1.553-17.015H78.136z"/>
	</g>
</g>
</svg>
