<?xml version="1.0" encoding="utf-8"?>
<!-- Generator: Adobe Illustrator 17.0.0, SVG Export Plug-In . SVG Version: 6.00 Build 0)  -->
<!DOCTYPE svg PUBLIC "-//W3C//DTD SVG 1.1//EN" "http://www.w3.org/Graphics/SVG/1.1/DTD/svg11.dtd">
<svg version="1.1" xmlns="http://www.w3.org/2000/svg" xmlns:xlink="http://www.w3.org/1999/xlink" x="0px" y="0px" width="320px"
	 height="140px" viewBox="0 0 320 140" enable-background="new 0 0 320 140" xml:space="preserve">
<g id="Layer_7">
	<rect x="2.5" y="2.5" fill="#0061AF" width="315" height="135"/>
</g>
<g id="Colors">
	<g>
		<g>
			<polygon fill="#FFFF00" points="150,105 175,105 175,95 150,95 150,80 170,80 170,70 140,70 140,130 180,130 180,120 150,120 			
				"/>
		</g>
		<g>
			<polygon fill="#FFFF00" points="270,70 230,9.977 230,130 245,130 245,70 270,100 295,70 295,130 310,130 310,9.977 			"/>
		</g>
		<g>
			<path fill="#FFFF00" d="M120.059,99.999C121.046,99.981,135,99.471,135,85c0-15.375-15.65-15-25-15c-10.833,0-15.006,0-15.006,0
				v60h10v-25c21.506,0,20,25,20,25s7.563,0,9.998,0C134.992,100.417,121.045,99.992,120.059,99.999z M117.001,93.5h-12.503v-15
				c0,0,2.086,0,7.503,0c4.675,0,12.5-0.188,12.5,7.5C124.501,93.5,117.001,93.5,117.001,93.5z"/>
		</g>
		<g>
			<path fill="#FFFF00" d="M200,70.023l-15,59.954h10L199,110l11-5l5,24.977h10l-15-59.954H200z M201,99l4-19.002L208,95L201,99z"/>
		</g>
		<polygon fill="#FFFF00" points="210,30.004 195,10 195,50 200.625,50 200.625,30.004 210,40.002 219.375,30.004 219.375,50 
			225,50 225,10 		"/>
		<g>
			<path fill="#FFFF00" d="M113.796,30C114.536,29.988,125,29.647,125,20c0-10.25-11.736-10-18.747-10c-8.124,0-11.253,0-11.253,0
				V50h7.499V33.334c16.127,0,14.998,16.666,14.998,16.666s5.671,0,7.498,0C124.994,30.278,114.535,29.995,113.796,30z
				 M111.503,25.667h-9.376v-10c0,0,1.564,0,5.626,0c3.506,0,9.373-0.125,9.373,5C117.127,25.667,111.503,25.667,111.503,25.667z"/>
		</g>
		<rect x="2.5" y="2.5" fill="none" stroke="#FFFF00" stroke-width="5" stroke-miterlimit="10" width="315" height="135"/>
		<g>
			<path fill="none" d="M55,85c0-8.284,6.716-15,15-15c0.847,0,1.672,0.087,2.481,0.222c0.006-0.42,0.019-0.826,0.019-1.257
				C72.47,46.262,56.533,32.75,43.057,32.75c-9.627,0-15.548,0-15.548,0s-0.019,60.243-0.003,72.445c3.347,0.124,13.266,0,18.665,0
				c6.688,0,12.881-1.796,17.58-6.571C58.591,96.252,55,91.051,55,85z"/>
			<path fill="none" d="M70,76c-4.971,0-9,4.029-9,9s4.029,9,9,9s9-4.029,9-9S74.971,76,70,76z M70,90c-2.761,0-5-2.239-5-5
				s2.239-5,5-5s5,2.239,5,5S72.761,90,70,90z"/>
			<path fill="#FFFF00" d="M37.658,10c-17.114,0-27.641,0-27.641,0s-0.033,99.713-0.005,119.909c5.95,0.206,23.584,0,33.182,0
				c25.422,0,46.871-13.507,46.806-59.966C89.947,32.364,61.614,10,37.658,10z M46.172,105.195c-5.399,0-15.318,0.124-18.665,0
				C27.49,92.993,27.509,32.75,27.509,32.75s5.922,0,15.548,0c13.475,0,29.413,13.512,29.443,36.215
				c0.001,0.43-0.013,0.837-0.019,1.257C71.672,70.087,70.847,70,70,70c-8.284,0-15,6.716-15,15c0,6.051,3.591,11.252,8.751,13.624
				C59.052,103.398,52.859,105.195,46.172,105.195z M70,94c-4.971,0-9-4.029-9-9s4.029-9,9-9s9,4.029,9,9S74.971,94,70,94z"/>
			<circle fill="#FFFF00" cx="70" cy="85" r="5"/>
		</g>
		<g>
			<path fill="none" d="M143,19c-5.523,0-10,4.477-10,10s4.477,10,10,10s10-4.477,10-10S148.523,19,143,19z M143,34
				c-2.761,0-5-2.239-5-5s2.239-5,5-5s5,2.239,5,5S145.761,34,143,34z"/>
			<path fill="#FFFF00" d="M143,14c-8.284,0-15,6.716-15,15s6.716,15,15,15s15-6.716,15-15S151.284,14,143,14z M143,39
				c-5.523,0-10-4.477-10-10s4.477-10,10-10s10,4.477,10,10S148.523,39,143,39z"/>
		</g>
		<g>
			<path fill="none" d="M177,19c-5.523,0-10,4.477-10,10s4.477,10,10,10s10-4.477,10-10S182.523,19,177,19z M177,34
				c-2.761,0-5-2.239-5-5s2.239-5,5-5s5,2.239,5,5S179.761,34,177,34z"/>
			<path fill="#FFFF00" d="M177,14c-8.284,0-15,6.716-15,15s6.716,15,15,15s15-6.716,15-15S185.284,14,177,14z M177,39
				c-5.523,0-10-4.477-10-10s4.477-10,10-10s10,4.477,10,10S182.523,39,177,39z"/>
		</g>
		<polygon fill="#FFFF00" points="130,49.75 160,59.75 190,49.75 160,47 		"/>
	</g>
</g>
<g id="Layer_6" display="none">
</g>
</svg>
