<?xml version="1.0" encoding="utf-8"?>
<!-- Generator: Adobe Illustrator 17.0.0, SVG Export Plug-In . SVG Version: 6.00 Build 0)  -->
<!DOCTYPE svg PUBLIC "-//W3C//DTD SVG 1.1//EN" "http://www.w3.org/Graphics/SVG/1.1/DTD/svg11.dtd">
<svg version="1.1" id="Layer_3" xmlns="http://www.w3.org/2000/svg" xmlns:xlink="http://www.w3.org/1999/xlink" x="0px" y="0px"
	 width="300px" height="300px" viewBox="0 0 300 300" enable-background="new 0 0 300 300" xml:space="preserve">
<g id="Layer_1">
	<circle fill="#282899" cx="150" cy="150" r="104.5"/>
	<path fill="#BC2D29" stroke="#FFC740" stroke-width="3" stroke-miterlimit="10" d="M150,10C72.68,10,10,72.68,10,150
		s62.68,140,140,140s140-62.68,140-140S227.32,10,150,10z M150,254.5c-57.714,0-104.5-46.786-104.5-104.5S92.286,45.5,150,45.5
		S254.5,92.286,254.5,150S207.714,254.5,150,254.5z"/>
</g>
<g>
	<path fill="#F5EA14" d="M228.398,96.406l1.198-1.014c0.18-0.153,0.459-0.046,0.49,0.189l0.208,1.555
		c0.008,0.057,0.031,0.11,0.068,0.154l1.014,1.198c0.153,0.18,0.046,0.458-0.189,0.49l-1.556,0.208
		c-0.057,0.008-0.11,0.031-0.154,0.068l-1.198,1.014c-0.18,0.153-0.458,0.046-0.49-0.189l-0.208-1.555
		c-0.007-0.057-0.031-0.11-0.068-0.154l-1.014-1.198c-0.153-0.181-0.046-0.458,0.189-0.49l1.555-0.208
		C228.301,96.467,228.354,96.443,228.398,96.406z"/>
	<path fill="#F5EA14" d="M61.142,123.096l0.734-0.838c0.111-0.126,0.317-0.08,0.364,0.081l0.31,1.071
		c0.011,0.039,0.034,0.074,0.064,0.101l0.839,0.734c0.126,0.111,0.08,0.317-0.081,0.364l-1.071,0.31
		c-0.039,0.011-0.074,0.034-0.101,0.064l-0.734,0.838c-0.111,0.126-0.317,0.08-0.364-0.081l-0.31-1.071
		c-0.011-0.039-0.034-0.074-0.064-0.101l-0.839-0.734c-0.126-0.111-0.08-0.317,0.081-0.364l1.071-0.31
		C61.08,123.148,61.115,123.126,61.142,123.096z"/>
	<path fill="#F5EA14" d="M225.899,188.086l0.734-0.838c0.111-0.126,0.317-0.08,0.364,0.081l0.31,1.071
		c0.011,0.039,0.034,0.074,0.064,0.101l0.839,0.734c0.126,0.111,0.08,0.317-0.081,0.364l-1.071,0.31
		c-0.039,0.011-0.074,0.034-0.101,0.064l-0.734,0.838c-0.111,0.126-0.317,0.08-0.364-0.081l-0.31-1.071
		c-0.011-0.039-0.034-0.074-0.064-0.101l-0.839-0.734c-0.126-0.111-0.08-0.317,0.081-0.364l1.071-0.31
		C225.838,188.139,225.873,188.117,225.899,188.086z"/>
	<path fill="#F5EA14" d="M144.898,57.711l0.734-0.838c0.111-0.126,0.317-0.08,0.364,0.081l0.31,1.071
		c0.011,0.039,0.034,0.074,0.064,0.101l0.839,0.734c0.126,0.111,0.08,0.317-0.081,0.364l-1.071,0.31
		c-0.039,0.011-0.074,0.034-0.101,0.064l-0.734,0.838c-0.111,0.126-0.317,0.08-0.364-0.081l-0.31-1.071
		c-0.011-0.039-0.034-0.074-0.064-0.101l-0.839-0.734c-0.126-0.111-0.08-0.317,0.081-0.364l1.071-0.31
		C144.837,57.764,144.872,57.742,144.898,57.711z"/>
	<path fill="#F5EA14" d="M229.698,136.781l0.089-1.111c0.013-0.167,0.207-0.254,0.34-0.152l0.888,0.674
		c0.032,0.025,0.071,0.039,0.112,0.043l1.111,0.089c0.167,0.013,0.254,0.207,0.152,0.34l-0.674,0.888
		c-0.024,0.032-0.039,0.071-0.042,0.112l-0.089,1.111c-0.013,0.167-0.206,0.254-0.34,0.152l-0.888-0.674
		c-0.032-0.025-0.071-0.039-0.112-0.043l-1.111-0.089c-0.167-0.013-0.254-0.206-0.152-0.34l0.674-0.888
		C229.68,136.86,229.694,136.821,229.698,136.781z"/>
	<path fill="#F5EA14" d="M77.995,190.077l0.535-0.978c0.081-0.147,0.292-0.147,0.373,0l0.535,0.978
		c0.019,0.036,0.049,0.065,0.084,0.085l0.978,0.535c0.147,0.081,0.147,0.292,0,0.373l-0.978,0.535
		c-0.036,0.02-0.065,0.049-0.084,0.085l-0.535,0.978c-0.081,0.147-0.292,0.147-0.373,0l-0.535-0.978
		c-0.02-0.036-0.049-0.065-0.084-0.085l-0.978-0.535c-0.147-0.081-0.147-0.292,0-0.373l0.978-0.535
		C77.946,190.142,77.975,190.113,77.995,190.077z"/>
	<path fill="#F5EA14" d="M175.484,96.647l1.157-0.383c0.174-0.058,0.344,0.1,0.298,0.278l-0.302,1.181
		c-0.011,0.043-0.009,0.088,0.005,0.131l0.383,1.158c0.058,0.174-0.1,0.344-0.278,0.298l-1.182-0.302
		c-0.043-0.011-0.088-0.009-0.131,0.005l-1.158,0.383c-0.174,0.058-0.344-0.1-0.298-0.278l0.302-1.181
		c0.011-0.043,0.009-0.088-0.004-0.131l-0.383-1.157c-0.058-0.174,0.1-0.344,0.278-0.298l1.181,0.302
		C175.397,96.663,175.442,96.661,175.484,96.647z"/>
	<path fill="#F5EA14" d="M63.494,158.311l-0.161-3.318c-0.024-0.5,0.514-0.829,0.948-0.58l2.88,1.654
		c0.105,0.06,0.225,0.089,0.346,0.083l3.318-0.161c0.5-0.024,0.829,0.514,0.58,0.948l-1.654,2.88
		c-0.06,0.105-0.089,0.225-0.083,0.346l0.161,3.318c0.024,0.5-0.514,0.829-0.948,0.58L66,162.407
		c-0.105-0.06-0.225-0.089-0.346-0.083l-3.318,0.161c-0.5,0.024-0.829-0.514-0.58-0.948l1.654-2.88
		C63.471,158.552,63.5,158.432,63.494,158.311z"/>
	<path fill="#F5EA14" d="M113.847,62.517l-1.768-2.812c-0.266-0.424,0.041-0.974,0.541-0.97l3.321,0.028
		c0.121,0.001,0.24-0.033,0.342-0.097l2.812-1.768c0.424-0.266,0.974,0.041,0.97,0.541l-0.028,3.321
		c-0.001,0.121,0.033,0.24,0.097,0.342l1.768,2.812c0.266,0.424-0.041,0.974-0.541,0.97l-3.321-0.028
		c-0.121-0.001-0.24,0.033-0.342,0.097l-2.812,1.768c-0.424,0.266-0.974-0.041-0.97-0.541l0.028-3.321
		C113.945,62.738,113.911,62.62,113.847,62.517z"/>
	<path fill="#F5EA14" d="M120.691,97.199l0.357-0.652c0.054-0.098,0.195-0.098,0.248,0l0.357,0.652
		c0.013,0.024,0.033,0.043,0.056,0.056l0.652,0.357c0.098,0.054,0.098,0.195,0,0.248l-0.652,0.357
		c-0.024,0.013-0.043,0.033-0.056,0.056l-0.357,0.652c-0.054,0.098-0.195,0.098-0.248,0l-0.357-0.652
		c-0.013-0.024-0.033-0.043-0.056-0.056l-0.652-0.357c-0.098-0.054-0.098-0.195,0-0.248l0.652-0.357
		C120.658,97.242,120.678,97.223,120.691,97.199z"/>
	<path fill="#F5EA14" d="M202.064,74.357l0.891-1.63c0.134-0.246,0.487-0.246,0.621,0l0.891,1.63
		c0.032,0.059,0.081,0.108,0.141,0.141l1.63,0.891c0.245,0.134,0.245,0.487,0,0.621l-1.63,0.891
		c-0.059,0.033-0.108,0.081-0.141,0.141l-0.891,1.63c-0.134,0.246-0.487,0.246-0.621,0l-0.891-1.63
		c-0.032-0.06-0.081-0.108-0.141-0.141l-1.63-0.891c-0.246-0.134-0.246-0.487,0-0.621l1.63-0.891
		C201.983,74.465,202.032,74.416,202.064,74.357z"/>
	<path fill="#F5EA14" d="M74.814,110.567l0.189-1.848c0.029-0.278,0.354-0.415,0.573-0.241l1.454,1.156
		c0.053,0.042,0.117,0.068,0.184,0.075l1.848,0.189c0.278,0.029,0.415,0.354,0.241,0.573l-1.156,1.454
		c-0.042,0.053-0.068,0.117-0.075,0.184l-0.189,1.848c-0.028,0.278-0.354,0.415-0.573,0.241l-1.454-1.156
		c-0.053-0.042-0.117-0.068-0.184-0.075l-1.848-0.189c-0.278-0.029-0.415-0.354-0.241-0.573l1.156-1.454
		C74.781,110.699,74.807,110.635,74.814,110.567z"/>
	<path fill="#F5EA14" d="M239.251,167.97l-0.401-1.045c-0.06-0.157,0.077-0.319,0.242-0.285l1.096,0.226
		c0.04,0.008,0.081,0.005,0.12-0.01l1.045-0.401c0.157-0.06,0.319,0.077,0.285,0.242l-0.226,1.096
		c-0.008,0.04-0.005,0.081,0.01,0.12l0.4,1.045c0.06,0.157-0.077,0.319-0.242,0.285l-1.096-0.226c-0.04-0.008-0.081-0.005-0.12,0.01
		l-1.045,0.401c-0.157,0.06-0.319-0.077-0.285-0.242l0.226-1.096C239.269,168.05,239.266,168.008,239.251,167.97z"/>
	<path fill="#F5EA14" d="M241.342,128.829l0.483-1.794c0.073-0.27,0.415-0.353,0.604-0.146l1.25,1.374
		c0.046,0.05,0.105,0.086,0.17,0.104l1.794,0.482c0.27,0.073,0.353,0.416,0.146,0.604l-1.374,1.25
		c-0.05,0.046-0.086,0.105-0.104,0.17l-0.483,1.794c-0.073,0.27-0.415,0.353-0.604,0.146l-1.25-1.374
		c-0.046-0.05-0.105-0.086-0.17-0.104l-1.794-0.482c-0.27-0.073-0.353-0.416-0.146-0.604l1.374-1.25
		C241.289,128.954,241.325,128.895,241.342,128.829z"/>
	<path fill="#F5EA14" d="M172.731,56.847l-0.665-1.734c-0.1-0.261,0.128-0.53,0.402-0.473l1.819,0.376
		c0.066,0.014,0.135,0.008,0.198-0.016l1.734-0.665c0.261-0.1,0.53,0.128,0.474,0.402l-0.376,1.819
		c-0.014,0.066-0.008,0.135,0.016,0.198l0.665,1.734c0.1,0.261-0.128,0.53-0.402,0.473l-1.819-0.376
		c-0.066-0.014-0.135-0.008-0.199,0.016l-1.734,0.665c-0.261,0.1-0.53-0.128-0.473-0.402l0.376-1.819
		C172.761,56.979,172.756,56.91,172.731,56.847z"/>
	<path fill="#F5EA14" d="M81.685,82.585L81.02,80.85c-0.1-0.261,0.128-0.53,0.402-0.473l1.819,0.376
		c0.066,0.014,0.135,0.008,0.198-0.016l1.735-0.665c0.261-0.1,0.53,0.128,0.474,0.402l-0.376,1.819
		c-0.014,0.066-0.008,0.135,0.016,0.198l0.665,1.734c0.1,0.261-0.128,0.53-0.402,0.473l-1.819-0.376
		c-0.066-0.014-0.135-0.008-0.199,0.016l-1.734,0.665c-0.261,0.1-0.53-0.128-0.473-0.402l0.376-1.819
		C81.715,82.717,81.709,82.648,81.685,82.585z"/>
</g>
<g>
	<linearGradient id="SVGID_1_" gradientUnits="userSpaceOnUse" x1="151.2848" y1="231.2648" x2="151.2848" y2="184.4728">
		<stop  offset="0" style="stop-color:#FFD75A"/>
		<stop  offset="1" style="stop-color:#F89E1C"/>
	</linearGradient>
	<path fill="url(#SVGID_1_)" d="M208.811,172.727c-19.988,13.568-41.134,19.833-57.924,19.988c-0.114,0,1.265,0.001,1.15,0
		c-0.114,0.001-1.72,0-1.835,0c-16.79-0.155-36.054-4.781-56.041-18.349c0,0-4.338,22.806,11.58,45.04
		c5.855,0.916,12.283-3.885,24.211-8.648c8.278-3.306,16.54-5.324,22.084-6.385c5.544,1.06,10.822,3.079,19.099,6.385
		c11.928,4.763,18.356,9.564,24.211,8.648C211.267,197.172,208.811,172.727,208.811,172.727z"/>
	<path fill="#FFFFFF" d="M213.036,147.186c-11.384-26.477-20.197-55.933-58.031-55.933s-66.269,23.108-66.269,58.8
		c0,25.172,13.606,35.561,34.894,39.502c-0.408,1.939-1.79,8.885-2.273,10.571c-0.291,1.013-0.856,3.619-0.928,3.997
		c-1.705,8.94,4.076,6.047,4.557,6.016c2.431-0.158,3.932-8.658,4.296-10.473c0.298-1.485,0.607-2.989,0.862-4.402
		c0.237-0.064,0.47-0.141,0.714-0.193c0.3-0.064,0.596-0.14,0.886-0.233c0.011,11.926,1.453,31.177,10.286,37.717
		c0,0,2.561-0.617,3.843-8.857l10.608-0.057l3.295,8.914c0,0,6.362-2.659,10.927-31.906c0,0,4.761,11.895,7.139,9.819
		c2.379-2.076,2.837-3.236,2.837-3.236s-3.753-12.523-2.723-17.174l-2.586-1.902C199.862,184.188,217.552,174.324,213.036,147.186z"
		/>
	<g>
		<path fill="#FFFFFF" stroke="#FACAC4" stroke-width="0.5" stroke-miterlimit="10" d="M197.676,109.377
			c-7.35-7.906-15.41-13.274-24.512-17.067c-7.382-2.873-15.167-4.329-23.157-4.329c-7.99,0-15.775,1.456-23.157,4.329
			c-7.77,3.322-15.993,7.277-24.512,17.067c-10.171,11.476-15.762,26.165-15.762,41.47c0,2.313,0.152,4.473,0.414,6.522l0.334,2.208
			c0.402,2.241,0.951,4.329,1.648,6.255l0.82,2.051c0.779,1.778,1.692,3.406,2.706,4.914l1.284,1.775
			c6.23,7.965,15.714,11.937,25.256,14.043c-0.001,0.005-0.001,0.01-0.002,0.015c0.273,0.057,0.547,0.104,0.82,0.158
			c0.57,0.12,1.14,0.236,1.71,0.343c-0.011,0.253-0.041,0.414-0.058,0.637c-0.007,0.101-0.807,10.208-2.805,14.677
			c-1.584,3.546-0.226,6.507,2.15,7.806c0.732,0.4,1.64,0.468,2.501,0.388c1.302-0.12,3.101-1.183,3.615-2.419
			c0.573-1.379,2.691-13.225,2.691-13.225c0.478,8.206,2.234,25.435,6.388,31.511c2.139,3.129,3.993,4.586,5.834,4.586
			c3.688,0,4.741-5.535,5.036-9.018c0.993,0.165,2.288,0.285,3.769,0.201c1.48,0.086,2.775-0.036,3.768-0.201
			c0.297,3.484,1.349,9.018,5.036,9.018c1.84,0,3.695-1.457,5.834-4.586c3.839-5.613,4.222-23.731,4.829-31.398
			c0.284,1.601,2.741,12.577,3.433,13.688c0.686,1.102,2.056,1.86,3.358,1.978c0.862,0.078,1.872-0.102,2.604-0.494
			c2.376-1.271,3.81-4.297,2.226-7.769c-1.997-4.375-2.798-14.269-2.805-14.368c-0.017-0.223-0.049-0.381-0.059-0.637
			c10.891-1.857,21.434-5.78,27.989-14.947l1.207-1.83c0.936-1.534,1.773-3.193,2.484-5.003l0.744-2.088
			c0.62-1.925,1.111-4.002,1.463-6.237l0.293-2.221c0.221-1.993,0.349-4.092,0.349-6.332
			C213.438,135.542,207.847,120.853,197.676,109.377z"/>
	</g>
	<g>
		
			<linearGradient id="SVGID_2_" gradientUnits="userSpaceOnUse" x1="841.5514" y1="191.515" x2="899.3004" y2="91.4907" gradientTransform="matrix(-1 0 0 1 1061.952 0)">
			<stop  offset="0" style="stop-color:#FFD75A"/>
			<stop  offset="0.2443" style="stop-color:#FFD556"/>
			<stop  offset="0.4889" style="stop-color:#FECD4A"/>
			<stop  offset="0.734" style="stop-color:#FDC136"/>
			<stop  offset="0.978" style="stop-color:#FBB01A"/>
			<stop  offset="1" style="stop-color:#FBAE17"/>
		</linearGradient>
		<path fill="url(#SVGID_2_)" d="M150.055,98.763c0,0,111.649,9.342,49.774,104.629C199.829,203.392,232.164,139.271,150.055,98.763
			z"/>
	</g>
	
		<linearGradient id="SVGID_3_" gradientUnits="userSpaceOnUse" x1="852.7092" y1="190.9564" x2="852.7092" y2="141.4451" gradientTransform="matrix(-1 0 0 1 1061.952 0)">
		<stop  offset="0" style="stop-color:#FAF4A9;stop-opacity:0"/>
		<stop  offset="0.5" style="stop-color:#FFFFFF"/>
		<stop  offset="1" style="stop-color:#FFFFFF;stop-opacity:0"/>
	</linearGradient>
	<path opacity="0.8" fill="url(#SVGID_3_)" d="M203.266,133.672l10.709,9.261c0,0,4.848,13.965-4.595,36.59
		C209.38,179.523,215.652,146.419,203.266,133.672z"/>
	
		<linearGradient id="SVGID_4_" gradientUnits="userSpaceOnUse" x1="864.239" y1="192.414" x2="864.239" y2="129.757" gradientTransform="matrix(-1 0 0 1 1061.952 0)">
		<stop  offset="0" style="stop-color:#FAF4A9;stop-opacity:0"/>
		<stop  offset="0.5" style="stop-color:#FFFFFF"/>
		<stop  offset="1" style="stop-color:#FFFFFF;stop-opacity:0"/>
	</linearGradient>
	<path opacity="0.8" fill="url(#SVGID_4_)" d="M186.183,121.266c0,0,26.712,20.473,20.662,62.657c0,0,8.445-29.943-6.364-51.949
		L186.183,121.266z"/>
	<path fill="#F4EFD7" d="M150.01,222.757c0.216,0.023,0.429,0.041,0.637,0.055c0.209-0.014,0.421-0.032,0.637-0.055H150.01z"/>
	<linearGradient id="SVGID_5_" gradientUnits="userSpaceOnUse" x1="157.645" y1="121.4155" x2="163.8923" y2="102.1536">
		<stop  offset="0" style="stop-color:#FFD75A"/>
		<stop  offset="0.2443" style="stop-color:#FFD556"/>
		<stop  offset="0.4889" style="stop-color:#FECD4A"/>
		<stop  offset="0.734" style="stop-color:#FDC136"/>
		<stop  offset="0.978" style="stop-color:#FBB01A"/>
		<stop  offset="1" style="stop-color:#FBAE17"/>
	</linearGradient>
	<path fill="url(#SVGID_5_)" d="M148.802,100.312c0,0,2.905,22.768,23.68,23.726c0,0,1.321-8.032-8.77-20.723L148.802,100.312z"/>
	<linearGradient id="SVGID_6_" gradientUnits="userSpaceOnUse" x1="148.2528" y1="123.3946" x2="148.2528" y2="99.1802">
		<stop  offset="0" style="stop-color:#FFD75A"/>
		<stop  offset="0.2443" style="stop-color:#FFD556"/>
		<stop  offset="0.4889" style="stop-color:#FECD4A"/>
		<stop  offset="0.734" style="stop-color:#FDC136"/>
		<stop  offset="0.978" style="stop-color:#FBB01A"/>
		<stop  offset="1" style="stop-color:#FBAE17"/>
	</linearGradient>
	<path fill="url(#SVGID_6_)" d="M143.207,100.87c0,0-1.589,14.445,5.212,22.524c0,0,4.744-7.013,5.042-22.524l-5.207-1.69
		L143.207,100.87z"/>
	<g>
		<linearGradient id="SVGID_7_" gradientUnits="userSpaceOnUse" x1="79.5994" y1="191.515" x2="137.3484" y2="91.4907">
			<stop  offset="0" style="stop-color:#FFD75A"/>
			<stop  offset="0.2443" style="stop-color:#FFD556"/>
			<stop  offset="0.4889" style="stop-color:#FECD4A"/>
			<stop  offset="0.734" style="stop-color:#FDC136"/>
			<stop  offset="0.978" style="stop-color:#FBB01A"/>
			<stop  offset="1" style="stop-color:#FBAE17"/>
		</linearGradient>
		<path fill="url(#SVGID_7_)" d="M149.945,98.763c0,0-111.649,9.342-49.774,104.629C100.171,203.392,67.836,139.271,149.945,98.763z
			"/>
	</g>
	<linearGradient id="SVGID_8_" gradientUnits="userSpaceOnUse" x1="139.8294" y1="121.1447" x2="134.8137" y2="104.1151">
		<stop  offset="0" style="stop-color:#FFD75A"/>
		<stop  offset="0.2443" style="stop-color:#FFD556"/>
		<stop  offset="0.4889" style="stop-color:#FECD4A"/>
		<stop  offset="0.734" style="stop-color:#FDC136"/>
		<stop  offset="0.978" style="stop-color:#FBB01A"/>
		<stop  offset="1" style="stop-color:#FBAE17"/>
	</linearGradient>
	<path fill="url(#SVGID_8_)" d="M148.253,98.048c0,0-2.163,20.644-22.822,25.905c0,0-2.523-11.408,3.674-21.17L148.253,98.048z"/>
	<path fill="#BC2B2A" d="M83.501,139.191c0,0,60.622-77.008,133.196,0.649c-0.631-44.684-21.879-70.447-66.73-70.321
		C105.767,69.642,82.828,92.928,83.501,139.191z"/>
	<path fill="#F5EA14" d="M136.185,95.687l0.846-0.451c0.127-0.068,0.277,0.036,0.264,0.184l-0.088,0.977
		c-0.003,0.036,0.004,0.071,0.019,0.103l0.437,0.872c0.066,0.131-0.035,0.286-0.178,0.272l-0.948-0.091
		c-0.035-0.003-0.069,0.004-0.1,0.02l-0.846,0.451c-0.128,0.068-0.277-0.036-0.264-0.184l0.088-0.977
		c0.003-0.036-0.004-0.071-0.02-0.103l-0.437-0.872c-0.066-0.131,0.035-0.286,0.178-0.272l0.948,0.091
		C136.119,95.71,136.154,95.703,136.185,95.687z"/>
	<path fill="#F5EA14" d="M113.855,102.948l1.299-0.431c0.196-0.065,0.384,0.119,0.331,0.324l-0.349,1.36
		c-0.013,0.05-0.011,0.102,0.004,0.151l0.418,1.339c0.063,0.202-0.115,0.396-0.314,0.341l-1.32-0.359
		c-0.048-0.013-0.099-0.012-0.146,0.004l-1.299,0.431c-0.196,0.065-0.384-0.119-0.331-0.324l0.349-1.36
		c0.013-0.05,0.011-0.102-0.004-0.151l-0.418-1.339c-0.063-0.202,0.115-0.396,0.314-0.341l1.32,0.36
		C113.756,102.965,113.807,102.964,113.855,102.948z"/>
	<path fill="#F5EA14" d="M152.746,76.381l0.465-0.877c0.07-0.132,0.254-0.132,0.324,0l0.465,0.877
		c0.017,0.032,0.042,0.058,0.073,0.076l0.851,0.479c0.128,0.072,0.128,0.262,0,0.334l-0.851,0.479
		c-0.031,0.018-0.057,0.044-0.073,0.076l-0.465,0.877c-0.07,0.132-0.254,0.132-0.324,0l-0.465-0.877
		c-0.017-0.032-0.043-0.058-0.073-0.076l-0.851-0.479c-0.128-0.072-0.128-0.262,0-0.334l0.851-0.479
		C152.704,76.44,152.729,76.413,152.746,76.381z"/>
	<path fill="#F5EA14" d="M131.752,81.478l1.007-0.344c0.152-0.052,0.299,0.09,0.259,0.249l-0.262,1.059
		c-0.01,0.039-0.008,0.079,0.004,0.117l0.334,1.038c0.05,0.156-0.087,0.308-0.242,0.267l-1.028-0.271
		c-0.038-0.01-0.077-0.008-0.114,0.004l-1.007,0.344c-0.152,0.052-0.299-0.09-0.259-0.249l0.262-1.059
		c0.01-0.039,0.008-0.079-0.004-0.117l-0.334-1.038c-0.05-0.156,0.087-0.308,0.242-0.267l1.028,0.27
		C131.676,81.491,131.716,81.49,131.752,81.478z"/>
	<path fill="#F5EA14" d="M187.098,97.559l0.775-1.461c0.117-0.22,0.424-0.22,0.54,0l0.775,1.461
		c0.028,0.053,0.071,0.097,0.122,0.126l1.418,0.799c0.214,0.12,0.214,0.437,0,0.557l-1.418,0.799
		c-0.052,0.029-0.094,0.073-0.122,0.126l-0.775,1.461c-0.117,0.22-0.424,0.22-0.54,0l-0.775-1.461
		c-0.028-0.053-0.071-0.097-0.122-0.126l-1.418-0.799c-0.214-0.12-0.214-0.437,0-0.557l1.418-0.799
		C187.028,97.656,187.07,97.613,187.098,97.559z"/>
	
		<radialGradient id="SVGID_9_" cx="150.3298" cy="-26874.5352" r="4.4642" fx="154.7522" fy="-26873.9258" gradientTransform="matrix(0.9988 0.205 -0.1591 0.8236 -4273.5332 22170.2148)" gradientUnits="userSpaceOnUse">
		<stop  offset="0" style="stop-color:#F5EA14"/>
		<stop  offset="0.5586" style="stop-color:#F6E813"/>
		<stop  offset="0.7598" style="stop-color:#F8E111"/>
		<stop  offset="0.9027" style="stop-color:#FBD60C"/>
		<stop  offset="1" style="stop-color:#FFC807"/>
	</radialGradient>
	<ellipse fill="url(#SVGID_9_)" cx="150.591" cy="69.518" rx="5.763" ry="2.925"/>
	<path fill="#BC2B2A" d="M135.583,228.265c0,0,5.728-2.855,10.786,0.226c-0.433,1.348-1.304,5.106-4.693,4.907
		C139.434,233.339,138.255,232.125,135.583,228.265z"/>
	<path fill="#BC2B2A" d="M165.819,228.309c0,0-5.805-2.892-10.863,0.19c0.433,1.348,1.23,4.832,4.611,4.89
		C161.809,233.33,163.146,232.168,165.819,228.309z"/>
	<path fill="#FFC740" d="M163.642,229.325c0,0.313-0.246,0.566-0.549,0.566l0,0c-0.303,0-0.549-0.253-0.549-0.566l0,0
		c0-0.313,0.246-0.566,0.549-0.566l0,0C163.397,228.759,163.642,229.012,163.642,229.325L163.642,229.325z"/>
	<path fill="#FFC740" d="M138.81,229.325c0,0.313-0.246,0.566-0.549,0.566l0,0c-0.303,0-0.549-0.253-0.549-0.566l0,0
		c0-0.313,0.246-0.566,0.549-0.566l0,0C138.564,228.759,138.81,229.012,138.81,229.325L138.81,229.325z"/>
	<path fill="#FFFFFF" d="M116.511,156.214c0,0-2.332-5.857-1.644-12.086c0.688-6.229,12.165-15.648,22.079-3.226
		c2.27,10.724-2.177,16.681-2.177,16.681S125.779,161.214,116.511,156.214z"/>
	<path fill="#FFFFFF" d="M185.147,156.214c0,0,2.332-5.857,1.644-12.086c-0.688-6.229-12.165-15.648-22.079-3.226
		c-2.27,10.724,2.177,16.681,2.177,16.681S175.88,161.214,185.147,156.214z"/>
	<path fill="#FFC740" d="M141.373,231.505c0,0.58-0.456,1.05-1.018,1.05l0,0c-0.562,0-1.018-0.47-1.018-1.05l0,0
		c0-0.58,0.456-1.05,1.018-1.05l0,0C140.917,230.455,141.373,230.925,141.373,231.505L141.373,231.505z"/>
	<path fill="#FFC740" d="M162.013,231.505c0,0.58-0.456,1.05-1.018,1.05l0,0c-0.562,0-1.018-0.47-1.018-1.05l0,0
		c0-0.58,0.456-1.05,1.018-1.05l0,0C161.557,230.455,162.013,230.925,162.013,231.505L162.013,231.505z"/>
	<path fill="#F6A094" d="M157.824,168.057c0.396-1.088-1.291-1.553-1.682-0.478c-0.34,0.933-2.52,1.257-3.246,0.829
		c-0.862-0.509-1.292-1.267-1.466-2.257c-0.088-0.501-0.464-0.675-0.839-0.63c-0.375-0.044-0.75,0.129-0.839,0.63
		c-0.174,0.99-0.604,1.748-1.466,2.257c-0.725,0.428-2.906,0.104-3.246-0.829c-0.392-1.075-2.078-0.61-1.682,0.478
		c0.655,1.8,2.682,2.356,4.404,2.312c1.178-0.03,2.164-0.747,2.829-1.71c0.665,0.963,1.651,1.68,2.829,1.71
		C155.142,170.413,157.169,169.856,157.824,168.057z"/>
	<ellipse fill="#F37E67" cx="112.148" cy="166.645" rx="5.557" ry="5.728"/>
	<ellipse fill="#F37E67" cx="189.034" cy="166.645" rx="5.557" ry="5.728"/>
	<ellipse fill="#FCD1B3" cx="150.591" cy="159.874" rx="2.426" ry="0.655"/>
	<g>
		<path fill="#FFC740" d="M111.816,132.389c5.05-5.203,21.468-7.059,24.828-2.434C127.828,127.476,119.568,127.483,111.816,132.389z
			"/>
		<path fill="#FFC740" d="M188.785,132.409c-7.759-4.931-16.012-4.963-24.765-2.484
			C166.924,125.266,184.036,127.229,188.785,132.409z"/>
		<g>
			<g>
				<ellipse fill="#006666" cx="125.962" cy="147.399" rx="9.768" ry="12.478"/>
				<linearGradient id="SVGID_10_" gradientUnits="userSpaceOnUse" x1="125.9262" y1="159.2377" x2="125.9262" y2="149.3781">
					<stop  offset="0" style="stop-color:#FFFFFF"/>
					<stop  offset="0.1891" style="stop-color:#FCFDFD"/>
					<stop  offset="0.3225" style="stop-color:#F3F8F8"/>
					<stop  offset="0.4387" style="stop-color:#E3EEEE"/>
					<stop  offset="0.5452" style="stop-color:#CDE1E1"/>
					<stop  offset="0.6451" style="stop-color:#B1D0D0"/>
					<stop  offset="0.74" style="stop-color:#8EBBBB"/>
					<stop  offset="0.831" style="stop-color:#64A2A2"/>
					<stop  offset="0.9166" style="stop-color:#358686"/>
					<stop  offset="1" style="stop-color:#006666"/>
				</linearGradient>
				<path fill="url(#SVGID_10_)" d="M131.818,149.399c-0.316,3.503-2.817,6.232-5.856,6.232c-3.017,0-5.5-2.689-5.847-6.155
					l-3.211,0.021c1.279,6.666,4.908,9.722,9.057,9.741c4.315,0.02,8.54-4.126,8.986-9.86L131.818,149.399z"/>
				<ellipse fill="#FFFFFF" cx="123.177" cy="142.935" rx="5.582" ry="5.713"/>
				<ellipse fill="#FFFFFF" cx="130.045" cy="153.504" rx="2.077" ry="2.127"/>
				<ellipse fill="#FFFFFF" cx="123.61" cy="152.764" rx="1.24" ry="1.27"/>
				<path d="M137.125,139.803c-2.242-2.542-3.928-5.681-9.627-6.812c-4.489-0.891-8.83,0.848-12.004,4.264
					c-1.349,0.31-3.984,0.279-8.249-2.273c0,0,3.492,4.24,6.729,4.163c-0.248,0.357-0.483,0.728-0.708,1.109
					c-1.298,0.625-3.712,1.198-7.434-0.122c0,0,4.248,3.043,6.49,1.944c-0.344,0.76-0.647,1.553-0.9,2.379
					c0.895,1.729,1.102,3.534,1.923,6.262c1.477-8.866,2.507-11.305,8.775-14.647c5.099-2.719,12.838,1.766,16.663,7.479
					C138.538,143.093,137.457,140.18,137.125,139.803z"/>
			</g>
			<g>
				<g>
					<ellipse fill="#006666" cx="175.644" cy="147.399" rx="9.768" ry="12.478"/>
					<linearGradient id="SVGID_11_" gradientUnits="userSpaceOnUse" x1="175.6084" y1="159.2377" x2="175.6084" y2="149.3776">
						<stop  offset="0" style="stop-color:#FFFFFF"/>
						<stop  offset="0.1891" style="stop-color:#FCFDFD"/>
						<stop  offset="0.3225" style="stop-color:#F3F8F8"/>
						<stop  offset="0.4387" style="stop-color:#E3EEEE"/>
						<stop  offset="0.5452" style="stop-color:#CDE1E1"/>
						<stop  offset="0.6451" style="stop-color:#B1D0D0"/>
						<stop  offset="0.74" style="stop-color:#8EBBBB"/>
						<stop  offset="0.831" style="stop-color:#64A2A2"/>
						<stop  offset="0.9166" style="stop-color:#358686"/>
						<stop  offset="1" style="stop-color:#006666"/>
					</linearGradient>
					<path fill="url(#SVGID_11_)" d="M181.5,149.398c-0.316,3.503-2.817,6.233-5.857,6.233c-3.017,0-5.5-2.689-5.847-6.155
						l-3.211,0.021c1.279,6.666,4.908,9.722,9.057,9.741c4.315,0.02,8.54-4.127,8.986-9.86L181.5,149.398z"/>
					<ellipse fill="#FFFFFF" cx="172.859" cy="142.934" rx="5.582" ry="5.714"/>
					<ellipse fill="#FFFFFF" cx="179.727" cy="153.504" rx="2.077" ry="2.127"/>
					<ellipse fill="#FFFFFF" cx="173.292" cy="152.763" rx="1.24" ry="1.27"/>
				</g>
				<path d="M164.057,139.803c2.242-2.542,3.928-5.681,9.627-6.812c4.489-0.891,8.83,0.848,12.004,4.264
					c1.349,0.31,3.984,0.279,8.249-2.273c0,0-3.492,4.24-6.729,4.163c0.248,0.357,0.483,0.728,0.708,1.109
					c1.298,0.625,3.712,1.198,7.434-0.122c0,0-4.248,3.043-6.49,1.944c0.344,0.76,0.647,1.553,0.9,2.379
					c-0.895,1.729-1.102,3.535-1.923,6.262c-1.477-8.867-2.507-11.305-8.775-14.648c-5.099-2.719-12.838,1.766-16.663,7.48
					C162.644,143.093,163.725,140.18,164.057,139.803z"/>
			</g>
		</g>
	</g>
	<path d="M116.311,156.173c0,0,1.465,1.281,1.693,3.046c0,0,9.062,2.945,18.306-2.055
		C136.31,157.164,126.105,161.126,116.311,156.173z"/>
	<path fill="#962322" d="M87.763,129.19c0,0,0-51.323,57.065-55.851C144.828,73.339,105.832,75.594,87.763,129.19z"/>
	<path fill="#962322" d="M212.815,129.19c0,0,0-51.323-57.065-55.851C155.75,73.339,194.746,75.594,212.815,129.19z"/>
	<path d="M185.737,156.173c0,0-1.465,1.281-1.693,3.046c0,0-9.062,2.945-18.306-2.055
		C165.738,157.164,175.943,161.126,185.737,156.173z"/>
	<path fill="#CB5BA1" d="M153.373,177.118"/>
	<linearGradient id="SVGID_12_" gradientUnits="userSpaceOnUse" x1="90.7572" y1="191.664" x2="90.7572" y2="142.1526">
		<stop  offset="0" style="stop-color:#FAF4A9;stop-opacity:0"/>
		<stop  offset="0.5" style="stop-color:#FFFFFF"/>
		<stop  offset="1" style="stop-color:#FFFFFF;stop-opacity:0"/>
	</linearGradient>
	<path opacity="0.8" fill="url(#SVGID_12_)" d="M96.734,133.672l-10.709,9.261c0,0-4.848,13.965,4.595,36.59
		C90.62,179.523,84.348,146.419,96.734,133.672z"/>
	<linearGradient id="SVGID_13_" gradientUnits="userSpaceOnUse" x1="102.2869" y1="192.414" x2="102.2869" y2="129.757">
		<stop  offset="0" style="stop-color:#FAF4A9;stop-opacity:0"/>
		<stop  offset="0.5" style="stop-color:#FFFFFF"/>
		<stop  offset="1" style="stop-color:#FFFFFF;stop-opacity:0"/>
	</linearGradient>
	<path opacity="0.8" fill="url(#SVGID_13_)" d="M113.817,121.266c0,0-26.712,20.473-20.662,62.657c0,0-8.445-29.943,6.364-51.949
		L113.817,121.266z"/>
	<g>
		<path fill="#BC2B2A" d="M170.172,195.616c-23.61-6.328-40.539-0.101-40.539-0.101c-1.069,6.193,0.201,11.038,0.201,11.038
			s-3.421,9.234-0.366,16.487c6.831,1.097,7.759,1.78,21.248,2.009c9.884,0.168,17.778-0.403,20.67-1.089
			c2.746-7.111-0.525-17.406-0.525-17.406S171.893,201.458,170.172,195.616z"/>
	</g>
	<path fill="none" stroke="#FFD75A" stroke-width="0.75" stroke-linecap="round" stroke-miterlimit="10" d="M129.835,206.553
		c0,0,11.869,2.162,41.027,0"/>
	<path fill="none" stroke="#FFD75A" stroke-width="0.75" stroke-linecap="round" stroke-miterlimit="10" d="M129.658,207.119
		c0,0,12.452,2.16,41.345,0"/>
	<g>
		<path fill="none" stroke="#FFD75A" stroke-width="0.75" stroke-linecap="round" stroke-miterlimit="10" d="M150.024,196.087
			l-0.672-0.421c-0.101-0.064-0.099-0.225,0.004-0.285l0.684-0.396c0.025-0.014,0.046-0.036,0.06-0.063l0.382-0.74
			c0.058-0.111,0.204-0.109,0.259,0.005l0.359,0.754c0.013,0.027,0.033,0.05,0.058,0.066l0.672,0.421
			c0.101,0.063,0.099,0.225-0.004,0.285l-0.685,0.396c-0.025,0.014-0.046,0.036-0.06,0.063l-0.382,0.74
			c-0.058,0.112-0.204,0.109-0.259-0.005l-0.359-0.754C150.068,196.125,150.048,196.102,150.024,196.087z"/>
		<path fill="none" stroke="#FFD75A" stroke-width="0.75" stroke-linecap="round" stroke-miterlimit="10" d="M149.543,200.057
			l-0.294-1.148c-0.044-0.173,0.103-0.331,0.259-0.279l1.036,0.347c0.038,0.013,0.078,0.013,0.116,0.001l1.042-0.324
			c0.157-0.049,0.301,0.113,0.253,0.285l-0.315,1.141c-0.011,0.042-0.012,0.086-0.001,0.128l0.294,1.148
			c0.044,0.173-0.103,0.331-0.259,0.279l-1.036-0.347c-0.038-0.013-0.078-0.013-0.116-0.001l-1.042,0.324
			c-0.157,0.049-0.301-0.113-0.253-0.285l0.315-1.141C149.553,200.143,149.554,200.099,149.543,200.057z"/>
		<path fill="none" stroke="#FFD75A" stroke-width="0.75" stroke-linecap="round" stroke-miterlimit="10" d="M150.024,205.08
			l-0.672-0.421c-0.101-0.063-0.099-0.225,0.004-0.285l0.684-0.396c0.025-0.014,0.046-0.036,0.06-0.063l0.382-0.74
			c0.058-0.111,0.204-0.109,0.259,0.005l0.359,0.754c0.013,0.027,0.033,0.05,0.058,0.066l0.672,0.421
			c0.101,0.063,0.099,0.225-0.004,0.285l-0.685,0.396c-0.025,0.014-0.046,0.036-0.06,0.063l-0.382,0.74
			c-0.058,0.112-0.204,0.109-0.259-0.005l-0.359-0.754C150.068,205.118,150.048,205.095,150.024,205.08z"/>
	</g>
	<linearGradient id="SVGID_14_" gradientUnits="userSpaceOnUse" x1="162.0048" y1="113.6469" x2="161.9424" y2="137.9787">
		<stop  offset="0" style="stop-color:#FAF4A9;stop-opacity:0"/>
		<stop  offset="0.5" style="stop-color:#FFFFFF"/>
		<stop  offset="0.9293" style="stop-color:#FFFFFF;stop-opacity:0.1413"/>
		<stop  offset="1" style="stop-color:#FFFFFF;stop-opacity:0"/>
	</linearGradient>
	<path fill="url(#SVGID_14_)" d="M154.941,112.175c0,0,6.334,7.911,14.115,8.336c0,0-0.411-5.378-3.317-7.5
		C165.738,113.011,170.527,123.51,154.941,112.175z"/>
	<linearGradient id="SVGID_15_" gradientUnits="userSpaceOnUse" x1="147.5151" y1="111.1988" x2="147.3823" y2="131.3987">
		<stop  offset="0" style="stop-color:#FAF4A9;stop-opacity:0"/>
		<stop  offset="0.5" style="stop-color:#FFFFFF"/>
		<stop  offset="1" style="stop-color:#FFFFFF;stop-opacity:0"/>
	</linearGradient>
	<path fill="url(#SVGID_15_)" d="M150.403,112.175c0,0,0.296,1.17-2.15,7.796c0,0-2.171-1.641-3.407-8.97
		C143.61,103.671,147.723,124.925,150.403,112.175z"/>
	<linearGradient id="SVGID_16_" gradientUnits="userSpaceOnUse" x1="133.5269" y1="113.5037" x2="133.2665" y2="135.3268">
		<stop  offset="0" style="stop-color:#FAF4A9;stop-opacity:0"/>
		<stop  offset="0.5" style="stop-color:#FFFFFF"/>
		<stop  offset="1" style="stop-color:#FFFFFF;stop-opacity:0"/>
	</linearGradient>
	<path fill="url(#SVGID_16_)" d="M127.546,116.343c0,0-0.686,2.753,0,4.168c0.686,1.415,10.16-4.077,12.219-8.336
		C139.766,112.175,128.37,122.223,127.546,116.343z"/>
	<path fill="none" stroke="#FFD75A" stroke-width="0.75" stroke-linecap="round" stroke-miterlimit="10" d="M129.582,195.515
		c0,0,18.671-6.321,40.59,0"/>
	<g>
		<path fill="#FFD75A" d="M150.648,220.067c1.259-0.019,14.675-0.045,21.789-1.062c-0.146,1.768-0.39,3.326-1.036,4.998
			c-2.893,0.686-10.791,1.256-20.68,1.089c-13.495-0.229-14.424-0.912-21.258-2.009c-0.587-1.394-0.934-2.904-1.113-4.361
			C135.853,219.834,149.377,220.087,150.648,220.067z"/>
	</g>
	<path fill="#F5EA14" d="M183.073,77.48l1.36-0.124c0.205-0.019,0.349,0.203,0.254,0.391l-0.632,1.247
		c-0.023,0.045-0.033,0.097-0.029,0.148l0.121,1.401c0.018,0.211-0.197,0.36-0.38,0.261l-1.21-0.651
		c-0.044-0.024-0.094-0.034-0.143-0.029l-1.36,0.124c-0.205,0.019-0.349-0.203-0.254-0.391l0.632-1.247
		c0.023-0.045,0.033-0.097,0.029-0.148l-0.121-1.402c-0.018-0.211,0.197-0.36,0.38-0.261l1.21,0.652
		C182.974,77.474,183.023,77.484,183.073,77.48z"/>
	<path fill="#F5EA14" d="M197.46,106.032l2.187-4.095c0.33-0.617,1.191-0.615,1.517,0.004l2.165,4.108
		c0.079,0.15,0.198,0.273,0.343,0.355l3.973,2.255c0.599,0.34,0.596,1.227-0.004,1.563l-3.985,2.232
		c-0.145,0.081-0.265,0.204-0.345,0.353l-2.187,4.095c-0.33,0.617-1.191,0.615-1.517-0.004l-2.165-4.108
		c-0.079-0.15-0.198-0.273-0.343-0.355l-3.973-2.255c-0.599-0.34-0.596-1.227,0.004-1.563l3.985-2.232
		C197.261,106.304,197.38,106.181,197.46,106.032z"/>
	<path fill="none" stroke="#FFD75A" stroke-linecap="round" stroke-miterlimit="10" d="M135.583,228.038
		c0,0,5.504-3.042,10.786,0.095"/>
	<path fill="#F5EA14" d="M89.964,120.442l0.414-1.341c0.062-0.202,0.317-0.253,0.448-0.09l0.872,1.083
		c0.032,0.039,0.074,0.069,0.121,0.084l1.301,0.427c0.196,0.064,0.245,0.327,0.087,0.462l-1.051,0.899
		c-0.038,0.033-0.067,0.076-0.082,0.125l-0.414,1.341c-0.062,0.202-0.317,0.253-0.448,0.09l-0.872-1.083
		c-0.032-0.039-0.074-0.069-0.121-0.084l-1.301-0.427c-0.196-0.064-0.246-0.327-0.087-0.462l1.051-0.898
		C89.92,120.534,89.949,120.49,89.964,120.442z"/>
	<path fill="none" stroke="#FFD75A" stroke-linecap="round" stroke-miterlimit="10" d="M165.691,228.038
		c0,0-5.359-2.958-10.641,0.179"/>
	<path fill="#F5EA14" d="M97.754,97.326l0.465-0.877c0.07-0.132,0.254-0.132,0.324,0l0.465,0.877
		c0.017,0.032,0.042,0.058,0.073,0.076l0.851,0.48c0.128,0.072,0.128,0.262,0,0.334l-0.851,0.48
		c-0.031,0.018-0.057,0.044-0.073,0.076l-0.465,0.877c-0.07,0.132-0.254,0.132-0.324,0l-0.465-0.877
		c-0.017-0.032-0.042-0.058-0.073-0.076l-0.851-0.48c-0.128-0.072-0.128-0.262,0-0.334l0.851-0.48
		C97.712,97.384,97.737,97.358,97.754,97.326z"/>
	<linearGradient id="SVGID_17_" gradientUnits="userSpaceOnUse" x1="125.1076" y1="219.3584" x2="184.0078" y2="219.3584">
		<stop  offset="0" style="stop-color:#FAF4A9;stop-opacity:0"/>
		<stop  offset="0.5" style="stop-color:#FFFFFF"/>
		<stop  offset="1" style="stop-color:#FFFFFF;stop-opacity:0"/>
	</linearGradient>
	<path opacity="0.7" fill="url(#SVGID_17_)" d="M170.827,215.231c0,0,0.054,0.138,0.079,0.379c0.113,1.086,0.326,4.265-0.734,6.311
		c-1.296,2.501-37.396,1.794-39.252-0.652C130.92,221.27,170.953,226.93,170.827,215.231z"/>
	
		<linearGradient id="SVGID_18_" gradientUnits="userSpaceOnUse" x1="611.9904" y1="198.061" x2="639.6567" y2="198.061" gradientTransform="matrix(-1 0 0 1 762.2886 0)">
		<stop  offset="0" style="stop-color:#FAF4A9;stop-opacity:0"/>
		<stop  offset="0.5" style="stop-color:#FFFFFF"/>
		<stop  offset="1" style="stop-color:#FFFFFF;stop-opacity:0"/>
	</linearGradient>
	<path opacity="0.7" fill="url(#SVGID_18_)" d="M143.571,194.441c0,0-8.373,0.753-12.492,2.74c0,0-0.763,1.475-0.482,4.5
		C130.596,201.681,130.294,196.039,143.571,194.441z"/>
	<path opacity="0.7" fill="#962322" d="M156.346,194.441c0,0,8.373,0.753,12.492,2.74c0,0,0.763,1.475,0.482,4.5
		C169.32,201.681,169.623,196.039,156.346,194.441z"/>
	<path fill="#962322" d="M129.835,214.618c0,0,0.001-3.795,1.053-5.378l4.695,0.337C135.583,209.578,131.149,209.76,129.835,214.618
		z"/>
	<path fill="#F5EA14" d="M210.705,125.255l0.31-0.584c0.047-0.088,0.169-0.088,0.216,0l0.31,0.584
		c0.011,0.021,0.028,0.039,0.049,0.05l0.567,0.32c0.085,0.048,0.085,0.175,0,0.223l-0.567,0.32
		c-0.021,0.012-0.038,0.029-0.049,0.051l-0.31,0.584c-0.047,0.088-0.169,0.088-0.216,0l-0.31-0.584
		c-0.011-0.021-0.028-0.039-0.049-0.051l-0.567-0.32c-0.085-0.048-0.085-0.175,0-0.223l0.567-0.32
		C210.677,125.294,210.694,125.276,210.705,125.255z"/>
	<path fill="#962322" d="M141.263,227.991c0,0,2.7-0.165,4.165,0.991c0,0-0.664,3.326-3.295,3.774
		C142.132,232.756,147.371,229.03,141.263,227.991z"/>
	<path fill="#F5EA14" d="M114.526,79.966l0.775-1.461c0.117-0.22,0.424-0.22,0.54,0l0.775,1.461
		c0.028,0.053,0.071,0.097,0.122,0.126l1.418,0.799c0.214,0.12,0.214,0.437,0,0.557l-1.418,0.799
		c-0.052,0.029-0.094,0.073-0.122,0.126l-0.775,1.461c-0.117,0.22-0.424,0.22-0.54,0l-0.775-1.461
		c-0.028-0.053-0.071-0.097-0.122-0.126l-1.418-0.799c-0.214-0.12-0.214-0.437,0-0.557l1.418-0.799
		C114.455,80.063,114.498,80.019,114.526,79.966z"/>
	<path fill="#962322" d="M160.095,227.991c0,0-2.7-0.165-4.165,0.991c0,0,0.664,3.326,3.295,3.774
		C159.226,232.756,153.987,229.03,160.095,227.991z"/>
	<path fill="#962322" d="M148.802,73.339c0,0-22.891,9.848-25.192,31.34C123.61,104.679,131.811,81.264,148.802,73.339z"/>
	<path fill="#962322" d="M152.02,73.339c0,0,22.891,9.848,25.192,31.34C177.212,104.679,169.011,81.264,152.02,73.339z"/>
	<path fill="#962322" d="M144.62,99.746c0,0,5.114-2.65,11.13,0c0,0,2.064-8.735-5.159-24.341
		C150.591,75.406,144.281,91.183,144.62,99.746z"/>
	<path fill="#F5EA14" d="M154.163,95.257l-0.578-1.555c-0.087-0.234,0.111-0.475,0.35-0.424l1.582,0.337
		c0.058,0.012,0.118,0.007,0.173-0.014l1.509-0.596c0.227-0.09,0.461,0.115,0.412,0.361l-0.327,1.631
		c-0.012,0.059-0.007,0.121,0.014,0.178l0.578,1.555c0.087,0.234-0.111,0.475-0.35,0.424l-1.582-0.337
		c-0.058-0.012-0.118-0.007-0.173,0.014l-1.509,0.596c-0.227,0.09-0.461-0.115-0.412-0.361l0.327-1.631
		C154.189,95.375,154.184,95.314,154.163,95.257z"/>
	<path fill="#F5EA14" d="M169.117,88.076l0.414-1.341c0.062-0.202,0.317-0.253,0.448-0.09l0.872,1.083
		c0.032,0.039,0.074,0.069,0.121,0.084l1.301,0.427c0.196,0.064,0.245,0.327,0.087,0.462l-1.051,0.899
		c-0.038,0.033-0.067,0.076-0.082,0.125l-0.414,1.341c-0.062,0.202-0.317,0.253-0.448,0.09l-0.872-1.083
		c-0.032-0.039-0.074-0.069-0.121-0.084l-1.301-0.427c-0.196-0.064-0.246-0.327-0.087-0.462l1.051-0.898
		C169.073,88.169,169.101,88.125,169.117,88.076z"/>
</g>
<path fill="none" d="M15,149C15,74.442,75.442,14,150,14s135,60.442,135,135"/>
<text transform="matrix(0.77 -0.6381 0.6381 0.77 72.2051 73.2002)"><tspan x="0" y="0" fill="#FFC740" font-family="'Fonarto'" font-size="38">E</tspan><tspan x="25.518" y="0.266" fill="#FFC740" font-family="'Fonarto'" font-size="38" rotate="13.476">L</tspan><tspan x="50.219" y="6.459" fill="#FFC740" font-family="'Fonarto'" font-size="38" rotate="27.054">E</tspan><tspan x="72.585" y="17.876" fill="#FFC740" font-family="'Fonarto'" font-size="38" rotate="41.317">N</tspan><tspan x="94.109" y="37.013" fill="#FFC740" font-family="'Fonarto'" font-size="38" rotate="56.528">Y</tspan><tspan x="109.906" y="62.91" fill="#FFC740" font-family="'Fonarto'" font-size="38" rotate="68.791">’</tspan><tspan x="115.89" y="78.218" fill="#FFC740" font-family="'Fonarto'" font-size="38" rotate="79.695">S</tspan></text>
<path fill="none" d="M15,151c0,74.558,60.442,135,135,135s135-60.442,135-135"/>
<text transform="matrix(0.7248 0.689 -0.689 0.7248 49.3457 241.582)"><tspan x="0" y="0" fill="#FFC740" font-family="'Fonarto'" font-size="38">S</tspan><tspan x="27.657" y="-0.579" fill="#FFC740" font-family="'Fonarto'" font-size="38" rotate="-12.114">T</tspan><tspan x="55.92" y="-7.66" fill="#FFC740" font-family="'Fonarto'" font-size="38" rotate="-22.281">I</tspan><tspan x="73.362" y="-14.792" fill="#FFC740" font-family="'Fonarto'" font-size="38" rotate="-33.016">C</tspan><tspan x="100.161" y="-33.119" fill="#FFC740" font-family="'Fonarto'" font-size="38" rotate="-47.084">K</tspan><tspan x="122.813" y="-59.077" fill="#FFC740" font-family="'Fonarto'" font-size="38" rotate="-60.826">E</tspan><tspan x="136.892" y="-85.693" fill="#FFC740" font-family="'Fonarto'" font-size="38" rotate="-74.097">R</tspan><tspan x="144.723" y="-116.733" fill="#FFC740" font-family="'Fonarto'" font-size="38" rotate="-86.734">S</tspan></text>
<path fill="none" stroke="#FFC740" stroke-width="3" stroke-linecap="round" stroke-miterlimit="10" d="M57.229,230.002
	C38.703,208.539,27.5,180.578,27.5,150c0-30.175,10.911-57.803,29.002-79.152"/>
<path fill="none" stroke="#FFC740" stroke-width="3" stroke-linecap="round" stroke-miterlimit="10" d="M243.078,70.355
	C261.42,91.771,272.5,119.592,272.5,150c0,30.577-11.203,58.538-29.729,80.002"/>
</svg>
