<?xml version="1.0" encoding="utf-8"?>
<!-- Generator: Adobe Illustrator 17.0.0, SVG Export Plug-In . SVG Version: 6.00 Build 0)  -->
<!DOCTYPE svg PUBLIC "-//W3C//DTD SVG 1.1//EN" "http://www.w3.org/Graphics/SVG/1.1/DTD/svg11.dtd">
<svg version="1.1" id="Layer_1" xmlns="http://www.w3.org/2000/svg" xmlns:xlink="http://www.w3.org/1999/xlink" x="0px" y="0px"
	 width="481.637px" height="170px" viewBox="0 0 481.637 170" enable-background="new 0 0 481.637 170" xml:space="preserve">
<rect x="-252" y="-115" display="none" fill="#00782F" width="70" height="70"/>
<g>
	<polygon fill="#00782F" points="0,170 23.892,0 82.019,0 121.08,46.55 157.876,0 217.997,0 241.889,170 181.64,170 135.941,79.967 
		105.78,138.925 88.821,109.307 60.081,170 	"/>
	<path d="M255.328,78.814c0-9.888,4.917-14.832,14.752-14.832h7.989c2.663,0,4.97,0.633,6.921,1.898v-7
		c0-3.164-2.175-4.746-6.526-4.746h-8.938c-3.56,0-5.339,1.582-5.339,4.746h-7.91c0-7.778,4.39-11.667,13.17-11.667h9.018
		c9.624,0,14.436,3.89,14.436,11.667v19.222v0.712v13.843c0,9.888-4.944,14.831-14.832,14.831h-7.91
		c-9.888,0-14.832-4.943-14.832-14.831V78.814z M278.069,100.527c4.614,0,6.921-2.623,6.921-7.87V78.814
		c0-5.273-2.308-7.91-6.921-7.91h-7.91c-4.614,0-6.921,2.637-6.921,7.91v13.843c0,5.247,2.307,7.87,6.921,7.87H278.069z"/>
	<path d="M314.852,107.488c-9.36-1.318-14.041-6.262-14.041-14.831V62.045c0-9.888,4.917-14.832,14.753-14.832h7.988
		c9.889,0,14.832,4.944,14.832,14.832v30.612c0,8.569-4.681,13.513-14.041,14.831v-6.961c4.087-0.633,6.131-3.256,6.131-7.87V62.045
		c0-5.273-2.308-7.91-6.922-7.91h-7.91c-4.614,0-6.921,2.637-6.921,7.91v30.612c0,4.614,2.043,7.237,6.13,7.87V107.488z"/>
	<path d="M377.954,107.528c0-1.845-1.754-2.769-5.261-2.769h-23.054l-0.06-6.922h7.425c-6.473-6.828-10.709-14.172-10.709-22.029
		V61.966c0-9.888,3.737-14.832,11.211-14.832h3.067c3.607,0,6.362,1.622,8.266,4.865c1.884-3.243,4.639-4.865,8.266-4.865h3.067
		c7.474,0,11.211,4.944,11.211,14.832v12.261c0,9.36-3.557,15.096-10.671,17.205V84.47c3.106-2.109,4.659-5.523,4.659-10.244V61.966
		c0-5.273-1.754-7.91-5.261-7.91h-3.006c-3.507,0-5.26,2.637-5.26,7.91v13.052h-6.012V61.966c0-5.273-1.754-7.91-5.26-7.91h-3.006
		c-3.508,0-5.261,2.637-5.261,7.91v13.843c0,7.699,5.148,15.043,13.444,22.029h6.943c7.515,0,11.272,3.23,11.272,9.69H377.954z"/>
	<path d="M399.531,78.814c0-9.888,4.917-14.832,14.752-14.832h7.99c2.662,0,4.97,0.633,6.921,1.898v-7
		c0-3.164-2.175-4.746-6.526-4.746h-8.938c-3.561,0-5.34,1.582-5.34,4.746h-7.91c0-7.778,4.391-11.667,13.17-11.667h9.018
		c9.624,0,14.437,3.89,14.437,11.667v19.222v0.712v13.843c0,9.888-4.944,14.831-14.831,14.831h-7.91
		c-9.889,0-14.832-4.943-14.832-14.831V78.814z M422.273,100.527c4.613,0,6.921-2.623,6.921-7.87V78.814
		c0-5.273-2.308-7.91-6.921-7.91h-7.91c-4.615,0-6.922,2.637-6.922,7.91v13.843c0,5.247,2.307,7.87,6.922,7.87H422.273z"/>
	<path d="M452.716,74.464l-0.791,18.193c0,5.247,2.307,7.87,6.921,7.87h7.91c4.614,0,6.922-2.623,6.922-7.87V71.458
		c0-5.273-2.308-7.91-6.922-7.91h-1.186c-7.91,0-11.865-5.339-11.865-16.018h7.91c0,6.065,1.291,9.097,3.875,9.097h1.266
		c9.889,0,14.832,4.944,14.832,14.832v21.199c0,9.888-4.943,14.831-14.832,14.831h-7.91c-9.887,0-14.831-4.943-14.831-14.831
		l0.791-18.193H452.716z"/>
	<path d="M254.935,122.263v-6.75h37.316v6.75h-16.209v47.527h-6.967v-47.527H254.935z"/>
	<path d="M300.892,134.229c0-6.749,1.201-11.497,3.602-14.244c2.421-2.723,6.643-4.085,12.666-4.085h5.463
		c6.063,0,10.295,1.35,12.696,4.05v-0.036c2.381,2.7,3.573,7.472,3.573,14.315v17.441c0,6.773-1.212,11.533-3.632,14.28
		c-2.401,2.7-6.614,4.05-12.637,4.05h-5.463c-6.043,0-10.265-1.35-12.666-4.05c-2.401-2.723-3.602-7.483-3.602-14.28V134.229z
		 M318.511,122.649c-1.521,0-2.807,0.047-3.857,0.142s-1.876,0.225-2.477,0.391c-1.16,0.355-2.171,0.971-3.032,1.847
		c-0.78,0.781-1.32,1.847-1.62,3.197c-0.341,1.421-0.511,3.907-0.511,7.46v14.6c0,1.729,0.045,3.221,0.135,4.476
		c0.09,1.255,0.215,2.238,0.376,2.948c0.16,0.616,0.384,1.202,0.675,1.758c0.29,0.557,0.605,1.024,0.945,1.403
		c0.881,0.9,1.891,1.504,3.032,1.812c0.6,0.189,1.426,0.332,2.477,0.426s2.336,0.142,3.857,0.142h2.701
		c1.52,0,2.812-0.047,3.872-0.142c1.06-0.095,1.891-0.237,2.491-0.426c1.201-0.308,2.221-0.912,3.062-1.812
		c0.76-0.805,1.29-1.835,1.591-3.09c0.16-0.687,0.28-1.646,0.36-2.877c0.08-1.231,0.121-2.771,0.121-4.618V135.65
		c0-1.823-0.041-3.351-0.121-4.582c-0.08-1.231-0.2-2.202-0.36-2.913c-0.341-1.35-0.891-2.416-1.651-3.197
		c-0.4-0.403-0.856-0.752-1.366-1.048c-0.51-0.296-1.056-0.539-1.636-0.728c-0.6-0.166-1.431-0.296-2.491-0.391
		c-1.061-0.095-2.352-0.142-3.872-0.142H318.511z"/>
	<path d="M346.437,115.513h7.453v34.066c0,3.234,0.174,6.473,0.522,7.715v-0.035c0.199,0.586,0.441,1.113,0.727,1.582
		s0.639,0.891,1.062,1.266h-0.037c0.87,0.75,1.913,1.289,3.131,1.617c0.621,0.117,1.496,0.217,2.627,0.299
		c1.13,0.082,2.516,0.123,4.155,0.123h5.665c1.64,0,3.031-0.041,4.175-0.123c1.143-0.082,2.024-0.182,2.646-0.299
		c0.571-0.164,1.13-0.387,1.677-0.668c0.547-0.281,1.044-0.598,1.491-0.949h-0.037c0.422-0.375,0.77-0.791,1.044-1.248
		s0.497-0.967,0.671-1.529c0.348-1.242,0.522-4.492,0.522-7.75v-34.066h7.454v34.77c0,6.68-1.441,12.379-4.323,15.098
		c-2.833,2.695-7.79,4.043-14.87,4.043h-6.56c-7.106,0-12.075-1.348-14.908-4.043c-2.857-2.695-4.285-8.395-4.285-15.098V115.513z"
		/>
	<path d="M399.526,169.79v-54.277h22.561c5.835,0,9.885,0.891,12.148,2.672c2.334,1.852,3.501,5.063,3.501,9.633v8.699
		c0,4.734-1.634,7.781-4.901,9.141c1.471,0.656,2.591,1.559,3.361,2.707c1.026,1.57,1.54,4.066,1.54,7.488v13.938h-7.212v-11.18
		c0-3.539-0.525-6.848-1.575-7.926c-0.98-1.148-3.046-1.723-6.196-1.723h-16.295v20.828H399.526z M406.458,122.263v20.02h14.509
		c4.062,0,6.675-0.469,7.843-1.406c1.143-0.938,1.715-3.648,1.715-6.133v-5.941c0-2.508-0.56-4.219-1.681-5.133
		c-0.583-0.469-1.522-0.82-2.817-1.055c-1.296-0.234-2.982-0.352-5.06-0.352H406.458z"/>
	<path d="M444.26,150.825h6.314v1.652c0,1.523,0.052,2.818,0.158,3.885c0.105,1.066,0.241,1.939,0.41,2.619
		c0.358,1.195,0.947,2.074,1.767,2.637c0.358,0.188,0.806,0.363,1.342,0.527c0.536,0.164,1.141,0.293,1.815,0.387
		c0.8,0.094,1.989,0.164,3.567,0.211c1.579,0.047,3.536,0.07,5.872,0.07c2.483,0,4.409-0.176,5.777-0.527
		c1.368-0.352,2.368-0.914,2.999-1.688c0.336-0.398,0.584-1.102,0.741-2.109s0.237-2.402,0.237-4.184
		c0-3.563-0.306-5.777-0.916-6.645c-0.568-0.844-1.779-1.348-3.63-1.512l-14.08-1.23c-4.378-0.375-7.429-1.629-9.155-3.762
		c-0.884-1.055-1.537-2.455-1.957-4.201c-0.422-1.746-0.631-3.838-0.631-6.275c0-2.977,0.299-5.432,0.899-7.365
		c0.6-1.934,1.5-3.521,2.699-4.764c1.011-0.984,2.389-1.676,4.136-2.074c0.841-0.188,1.994-0.334,3.456-0.439
		s3.278-0.158,5.445-0.158h1.642c4.756,0,8.102,0.258,10.039,0.773c2.02,0.563,3.704,1.477,5.051,2.742
		c1.873,1.805,2.809,5.039,2.809,9.703c0,0.656-0.011,1.271-0.031,1.846c-0.022,0.574-0.043,1.002-0.063,1.283h-6.282v-1.934
		c0-1.781-0.085-3.129-0.253-4.043c-0.169-0.914-0.431-1.582-0.789-2.004c-0.569-0.609-1.6-1.031-3.094-1.266
		c-1.62-0.281-4.671-0.422-9.154-0.422c-2.294,0-4.141,0.129-5.541,0.387s-2.373,0.656-2.92,1.195
		c-1.073,1.125-1.61,3.328-1.61,6.609c0,1.383,0.089,2.543,0.269,3.48c0.178,0.938,0.436,1.664,0.773,2.18v-0.035
		c0.358,0.469,0.879,0.85,1.563,1.143c0.683,0.293,1.552,0.475,2.604,0.545l14.364,1.336c3.935,0.398,6.713,1.641,8.334,3.727
		c1.599,2.133,2.4,5.531,2.4,10.195c0,1.688-0.043,3.176-0.127,4.465c-0.085,1.289-0.242,2.367-0.473,3.234
		c-0.442,1.781-1.126,3.27-2.053,4.465c-0.589,0.703-1.289,1.33-2.099,1.881s-1.71,0.967-2.699,1.248
		c-0.99,0.305-2.341,0.521-4.057,0.65s-3.825,0.193-6.329,0.193h-2.274c-2.126,0-3.941-0.059-5.445-0.176s-2.731-0.305-3.677-0.563
		c-0.947-0.258-1.805-0.604-2.573-1.037c-0.769-0.434-1.457-0.967-2.068-1.6h0.032c-1.221-1.148-2.115-2.701-2.683-4.658
		c-0.569-1.957-0.852-4.424-0.852-7.4V150.825z"/>
	<polygon fill="#00782F" points="289.796,41.942 323.796,15.734 335.041,28.432 374.463,0.4 417.421,32.942 430.921,16.817 
		453.671,40.517 433.171,24.442 429.296,40.567 423.421,31.317 419.671,35.692 421.296,41.567 376.796,8.317 375.921,13.567 
		372.171,13.067 369.546,17.567 388.126,33.254 369.296,24.442 343.486,29.358 338.421,30.067 339.796,36.067 325.046,22.317 
		321.796,28.317 316.046,29.942 324.296,42.567 313.546,35.942 	"/>
</g>
</svg>
