<?xml version="1.0" encoding="utf-8"?>
<!-- Generator: Adobe Illustrator 17.0.0, SVG Export Plug-In . SVG Version: 6.00 Build 0)  -->
<!DOCTYPE svg PUBLIC "-//W3C//DTD SVG 1.1//EN" "http://www.w3.org/Graphics/SVG/1.1/DTD/svg11.dtd">
<svg version="1.1" xmlns="http://www.w3.org/2000/svg" xmlns:xlink="http://www.w3.org/1999/xlink" x="0px" y="0px"
	 width="447.073px" height="419.696px" viewBox="0 0 447.073 419.696" enable-background="new 0 0 447.073 419.696"
	 xml:space="preserve">
<g id="Layer_6">
</g>
<g id="Layer_9">
</g>
<g id="Layer_7">
</g>
<g id="Layer_4">
	<g>
		<g>
			<g>
				<path fill="#CF1400" d="M227.532,402.075c-107.5,0-194.958-87.458-194.958-194.958S120.032,12.159,227.532,12.159
					c107.5,0,194.958,87.458,194.958,194.958S335.032,402.075,227.532,402.075z M227.532,60.57
					c-80.806,0-146.547,65.74-146.547,146.547s65.741,146.547,146.547,146.547c80.807,0,146.547-65.74,146.547-146.547
					S308.338,60.57,227.532,60.57z"/>
			</g>
			<g>
				<path fill="#FFFFFF" d="M227.532,12.534c26.269,0,51.752,5.145,75.74,15.291c23.171,9.8,43.98,23.831,61.851,41.701
					s31.901,38.68,41.701,61.851c10.146,23.989,15.291,49.472,15.291,75.74s-5.145,51.752-15.291,75.74
					c-9.8,23.171-23.831,43.98-41.701,61.851s-38.68,31.901-61.851,41.701c-23.989,10.146-49.471,15.291-75.74,15.291
					s-51.752-5.145-75.74-15.291c-23.171-9.8-43.98-23.831-61.851-41.701s-31.901-38.68-41.701-61.851
					c-10.146-23.989-15.291-49.471-15.291-75.74s5.145-51.752,15.291-75.74c9.8-23.171,23.831-43.98,41.701-61.851
					s38.68-31.901,61.851-41.701C175.78,17.678,201.263,12.534,227.532,12.534 M227.532,354.039
					c81.013,0,146.922-65.909,146.922-146.922S308.545,60.195,227.532,60.195S80.609,126.104,80.609,207.117
					S146.518,354.039,227.532,354.039 M227.532,11.784c-107.88,0-195.333,87.454-195.333,195.333s87.454,195.333,195.333,195.333
					c107.88,0,195.333-87.454,195.333-195.333S335.411,11.784,227.532,11.784L227.532,11.784z M227.532,353.289
					c-80.729,0-146.172-65.444-146.172-146.172S146.803,60.945,227.532,60.945c80.729,0,146.172,65.444,146.172,146.172
					S308.26,353.289,227.532,353.289L227.532,353.289z"/>
			</g>
		</g>
		<g>
			<g>
				<path fill="#FFFDFD" stroke="#FFFFFF" stroke-width="0.75" stroke-miterlimit="10" d="M208.551,144.132
					c-1.294-0.579-2.295-1.113-2.6-1.468c-0.558-0.651-2.734-2.262-4.654-3.683c-1.691-1.252-3.439-2.546-3.501-2.771
					c-0.06-0.218-0.257-0.779-0.485-1.429c-0.288-0.821-0.615-1.752-0.764-2.273c-0.227-0.795-1.609-1.353-2.435-1.686
					c-0.159-0.064-0.296-0.12-0.393-0.164c-0.269-0.124-1.002-0.153-1.777-0.184c-0.79-0.031-1.774-0.07-1.817-0.24
					c-0.012-0.049-0.027-0.117-0.045-0.198c-0.112-0.517-0.344-1.592-0.82-1.83c-0.151-0.075-0.438-0.166-0.801-0.281
					c-0.928-0.293-2.33-0.736-2.936-1.407c-0.91-1.006-2.699-2.732-3.634-2.821c-0.937-0.089-3.345-0.312-3.345-0.312l-0.022-0.002
					l-0.011,0.019c-0.005,0.009-0.497,0.884-1.541,1.188c-0.265,0.077-0.628,0.115-1.111,0.115c-0.359,0-0.734-0.02-1.097-0.039
					c-0.324-0.017-0.63-0.033-0.892-0.033c-0.348,0-0.57,0.03-0.697,0.093c-0.567,0.284-0.906,0.537-0.461,1.428
					c0.237,0.475,0.988,2.075,0.687,2.731c-0.062,0.135-0.163,0.218-0.308,0.254c-0.216,0.054-0.376,0.123-0.517,0.183
					c-0.169,0.073-0.303,0.13-0.463,0.13c-0.274,0-0.628-0.18-1.222-0.62c-1.622-1.204-11.137-8.66-11.137-9.116
					c0-0.487-0.428-3.575-0.447-3.706l-0.002-0.013l-1.768-1.405l-0.02,0.012c-0.107,0.062-10.661,6.196-11.403,6.24
					c-0.417,0.025-1.38-0.193-2.223-0.384c-0.588-0.133-1.097-0.248-1.285-0.248c-0.032,0-0.055,0.003-0.071,0.01
					c-0.222,0.089-1.661,1.655-1.979,2.2c-0.343,0.588-1.258,1.761-1.75,1.679c-0.279-0.047-1.979-0.08-3.778-0.115
					c-1.628-0.032-3.311-0.065-3.806-0.108c-0.898-0.078-5.178-1.343-7.006-1.883c-0.244-0.072-0.439-0.13-0.569-0.168
					c-0.666-0.194-1.6-0.233-2.683-0.278c-0.665-0.028-1.354-0.056-2.051-0.124c-1.876-0.183-9.289-1.448-11.816-1.962
					c-0.997-0.203-2.278-0.382-3.518-0.556c-2.01-0.281-4.088-0.572-4.859-0.958c-1.277-0.639-6.333-3.795-7.126-4.719
					c-0.795-0.928-4.824-4.472-4.865-4.508l-0.009-0.008l-0.012,0c-0.028-0.001-2.815-0.097-3.999-0.754
					c-1.126-0.626-7.247-3.96-8.388-4.461c-0.285-0.125-0.656-0.189-1.103-0.189c-0.78,0-1.634,0.189-2.199,0.314
					c-0.199,0.044-0.355,0.079-0.463,0.095c-0.017,0.003-0.037,0.004-0.059,0.004c-0.71,0-3.842-1.23-4.785-1.607
					c-0.334-0.134-0.934-0.201-1.782-0.201c-0.81,0-1.665,0.062-2.125,0.095c-0.082,0.006-0.154,0.011-0.211,0.015
					c-0.613,0.041-1.38-0.26-2.122-0.551l-0.182-0.071c-0.554-0.215-1.063-0.991-1.436-1.558c-0.16-0.243-0.286-0.436-0.381-0.531
					c-0.301-0.301-1.907-0.436-2.137-0.454c-0.063-0.286-0.596-2.677-0.946-2.896c-0.197-0.123-1.162-0.129-2.184-0.134
					c-0.861-0.005-1.752-0.01-2.062-0.093c-0.385-0.103-3.067-1.773-5.222-3.116c-1.807-1.126-2.92-1.817-3.033-1.835l-0.014-0.001
					c-0.18,0-1.088,0.596-2.351,1.438c-0.721,0.481-1.403,0.936-1.53,0.972c0,0-0.004,0.001-0.015,0.001
					c-0.357,0-3.701-0.916-6.142-1.586c-1.649-0.452-2.951-0.809-3.107-0.826c-0.258-0.029-0.741,0.12-1.368,0.313
					c-0.367,0.113-0.784,0.242-1.231,0.357c-0.864,0.224-3.141,0.363-4.755,0.363c-0.58,0-1.029-0.018-1.298-0.051
					c-1.06-0.133-11.671-0.222-11.782-0.223c-1.03,0.114-1.593,0.31-1.722,0.599c-0.126,0.283,0.001,0.766,0.124,1.234
					c0.058,0.221,0.113,0.43,0.141,0.614l0.01,0.065c0.094,0.601,0.268,1.72-0.316,2.224c-0.368,0.318-0.827,0.757-1.232,1.144
					c-0.278,0.266-0.519,0.496-0.682,0.641c-0.243,0.216-0.85,0.564-1.804,1.035l-0.062,0.031c-0.186,0.093-0.647,0.456-0.553,1.017
					c0.085,0.509-0.215,2.154-0.399,2.568c-0.064,0.144-0.169,0.363-0.279,0.595c-0.2,0.42-0.407,0.854-0.437,0.972
					c-0.035,0.14-0.328,0.488-0.438,0.61l-0.03,0.034l0.041,0.019c0.031,0.014,3.087,1.431,3.814,1.74
					c0.716,0.304,3.819,1.809,4.124,1.962c0.267,0.134,3.492,1.283,3.796,1.384c0.271,0.09,1.805,0.906,2.536,1.335
					c0.185,0.109,0.39,0.208,0.589,0.304c0.635,0.307,1.235,0.597,1.268,1.185c0.019,0.336,0.106,2.052,0,2.848
					c-0.023,0.172-0.052,0.357-0.082,0.554c-0.087,0.564-0.186,1.204-0.186,1.769c0,0.241-0.042,0.496-0.082,0.744
					c-0.087,0.533-0.178,1.084,0.133,1.55c0.189,0.284,0.406,0.507,0.615,0.723c0.284,0.293,0.529,0.545,0.63,0.874
					c0.072,0.233,0.077,0.504,0.083,0.79c0.009,0.417,0.017,0.849,0.232,1.224l0.062,0.11c0.317,0.561,0.499,0.887,1.485,0.843
					c0.869-0.038,1.851-0.357,2.501-0.569c0.119-0.039,0.226-0.074,0.317-0.102l0.125-0.039c0.415-0.13,1.042-0.326,1.563-0.326
					c0.252,0,0.455,0.046,0.604,0.138c0.365,0.224,1.352,1.131,2.715,2.493c0.21,0.21,0.874,0.318,1.577,0.432
					c0.372,0.06,0.757,0.123,1.07,0.201c0.269,0.067,0.524,0.114,0.771,0.159c0.577,0.106,1.076,0.197,1.538,0.505
					c0.272,0.181,0.527,0.505,0.797,0.847c0.388,0.492,0.828,1.049,1.436,1.34c0.947,0.453,2.418,0.942,3.142,0.942
					c0.134,0,0.241-0.016,0.319-0.049c0.524-0.218,2.357-0.801,3.38-0.89c0.038-0.003,0.083-0.005,0.135-0.005
					c0.79,0,3.094,0.381,5.127,0.718c1.397,0.231,2.716,0.45,3.473,0.536c0.425,0.048,0.9,0.098,1.36,0.145
					c1.61,0.167,3.436,0.357,3.567,0.554c0.045,0.068,0.123,0.313,0.221,0.623c0.287,0.909,0.768,2.43,1.522,3.217
					c1.093,1.14,1.695,2.189,1.957,2.713c0.312,0.624,0.495,0.952,0.918,0.999c0.154,0.017,0.359-0.007,0.55-0.033
					c0.142-0.019,0.277-0.037,0.398-0.037c0.128,0,0.221,0.021,0.287,0.065c0.044,0.03,0.084,0.044,0.12,0.044
					c0.085,0,0.138-0.073,0.207-0.165c0.094-0.127,0.223-0.301,0.506-0.41c0.124-0.048,0.253-0.101,0.385-0.156
					c0.488-0.202,0.996-0.411,1.339-0.377c0.069,0.007,0.155,0.012,0.253,0.017c0.526,0.029,1.407,0.078,1.775,0.594
					c0.196,0.274,0.279,0.562,0.376,0.895c0.121,0.414,0.27,0.93,0.693,1.601c0.813,1.291,1.739,3.099,1.824,3.733
					c0.045,0.335,0.022,1.196-0.001,2.029c-0.023,0.837-0.044,1.628,0.001,1.896c0.028,0.167,0.042,0.315,0.057,0.458
					c0.031,0.317,0.058,0.591,0.214,0.932c0.21,0.463,0.379,1.312,0.488,1.91c0.092,0.506,0.589,1.757,0.859,1.982
					c0.259,0.216,2.626,1.306,3.14,1.306c0.022,0,0.041-0.002,0.056-0.006c0.163-0.041,0.391-0.193,0.631-0.355
					c0.294-0.198,0.599-0.402,0.788-0.402c0.039,0,0.132-0.001,0.268-0.001c0.365-0.002,1.038-0.006,1.788-0.006
					c2.791,0,3.496,0.051,3.595,0.094c0.177,0.076,0.87,0.417,1.671,0.811c0.609,0.3,1.3,0.64,1.896,0.928
					c0.787,0.381,2.197,0.806,3.331,1.148c0.848,0.256,1.58,0.476,1.75,0.589c0.179,0.119,0.206,0.213,0.256,0.384
					c0.058,0.198,0.136,0.469,0.494,0.947c0.737,0.983,3.925,5.824,4.097,6.943c0.073,0.472,0.277,1.025,0.494,1.609
					c0.312,0.842,0.665,1.796,0.665,2.667c0,0.824,0.338,3.658,0.637,6.158c0.236,1.977,0.459,3.844,0.478,4.414
					c0.042,1.229,0.303,3.097,0.537,3.844c0.223,0.714,0.625,2.277,0.758,2.852c0.162,0.703,0.386,1.457,0.818,1.716
					c0.517,0.31,3.061,2.289,3.061,3.182c0,0.302,0.005,0.686,0.009,1.094c0.01,0.863,0.021,1.754-0.009,2.025
					c-0.033,0.293,0.131,0.592,0.491,1.245c0.146,0.265,0.327,0.595,0.538,1.004c0.156,0.302,0.313,0.577,0.465,0.843
					c0.549,0.961,0.983,1.72,0.914,2.931c-0.006,0.113-0.008,0.232-0.012,0.349h104.806V144.132z"/>
				<path fill="#FFFDFD" stroke="#FFFFFF" stroke-width="0.75" stroke-miterlimit="10" d="M446.262,270.984
					c-0.121-0.197-0.345-0.446-0.581-0.709c-0.47-0.523-1.003-1.116-0.975-1.546c0.014-0.205,0.091-0.408,0.166-0.605
					c0.1-0.263,0.194-0.511,0.092-0.695c-0.069-0.124-0.22-0.206-0.463-0.252c-0.213-0.041-0.475-0.079-0.753-0.12
					c-0.916-0.134-2.055-0.301-2.12-0.656c-0.086-0.474-0.663-1.803-1.453-1.989c-0.776-0.183-3.966-1.337-4.676-1.692
					c-0.653-0.327-1.419-0.514-2.101-0.514c-0.127,0-0.252,0.007-0.371,0.02c-0.025,0.003-0.053,0.004-0.082,0.004
					c-0.883,0-3.234-1.237-3.594-1.557c-0.395-0.352-1.37-1.458-1.38-1.469l-0.01-0.012l-0.016,0.001
					c-0.003,0-0.271,0.01-0.636,0.01c-1.185,0-1.932-0.095-2.105-0.268c-0.349-0.349-1.19-1.895-1.198-1.91l-0.011-0.021
					l-1.569,0.224l-2.787-2.344c-0.001-0.18-0.03-1.672-0.596-2.02c-0.255-0.157-0.657-0.237-1.045-0.314
					c-0.497-0.098-0.966-0.191-1.036-0.425c-0.037-0.125-0.176-0.312-0.337-0.529c-0.306-0.414-0.687-0.929-0.567-1.264
					c0.052-0.143,0.197-0.246,0.433-0.305c0.399-0.1,0.8-0.145,1.154-0.185c0.564-0.063,1.009-0.113,1.194-0.347
					c0.074-0.093,0.102-0.208,0.085-0.352c-0.085-0.719-0.349-1.656-0.592-1.851c-0.091-0.073-0.352-0.138-0.713-0.228
					c-0.543-0.135-1.288-0.321-1.696-0.621c-0.663-0.486-1.158-0.758-1.163-0.76l-0.013-0.007l-0.015,0.006
					c-0.011,0.004-1.163,0.444-1.95,0.444c-0.747,0-2.343-0.715-2.513-0.793c-0.854-3.568-2.459-10.341-2.45-10.536
					c0.024-0.072,0.758-1.453,1.467-2.78H236.162v64.728c0.257-0.039,0.458-0.064,0.539-0.064c0.162,0,1.287,0.447,2.375,0.879
					c1.319,0.524,2.683,1.065,3.018,1.103c0.056,0.006,0.138,0.009,0.249,0.009c0.489,0,1.441-0.06,2.362-0.118
					c0.84-0.053,1.633-0.103,2.003-0.103c0.149,0,0.186,0.008,0.195,0.012c0.067,0.027,0.244,0.225,0.43,0.434
					c0.393,0.441,0.931,1.044,1.277,1.044c0.017,0,0.034-0.002,0.05-0.005c0.084-0.015,0.196-0.029,0.325-0.045
					c0.617-0.077,1.65-0.206,1.841-0.78c0.035-0.105,0.065-0.212,0.094-0.314c0.154-0.547,0.299-1.064,1.222-1.359
					c0.603-0.193,2.125-0.826,3.468-1.385c1.103-0.459,2.146-0.893,2.327-0.933c0.041-0.009,0.136-0.014,0.285-0.014
					c0.615,0,2.014,0.077,3.366,0.152c1.212,0.067,2.356,0.13,2.808,0.13c0.722,0,1.209-0.143,1.884-0.342
					c0.336-0.099,0.717-0.211,1.202-0.328c0.391-0.095,0.658-0.183,0.873-0.254c0.288-0.095,0.479-0.158,0.737-0.158
					c0.265,0,0.609,0.065,1.228,0.232c0.583,0.158,1.155,0.364,1.659,0.546c0.773,0.279,1.441,0.52,1.932,0.52
					c0.116,0,0.216-0.013,0.307-0.04c0.787-0.232,3.408-1.169,3.844-1.431c0.442-0.265,0.934-0.622,0.939-0.626l0.013-0.01l0-0.017
					c0.018-1.514,0.168-3.8,0.51-3.893c0.318-0.087,1.578-0.253,2.466-0.253c0.674,0,0.846,0.095,0.888,0.152
					c0.078,0.104,0.162,0.39,0.258,0.721c0.232,0.795,0.55,1.885,1.189,2.012c0.372,0.074,1.253,0.112,2.617,0.112
					c1.014,0,1.93-0.022,1.939-0.022l0.025-0.001l0.006-0.025c0.143-0.56,0.628-2.043,1.075-1.938c0.218,0.05,1.144,0.43,2.217,0.87
					c1.806,0.74,4.053,1.662,4.611,1.717c0.236,0.024,0.49,0.073,0.736,0.122c0.345,0.068,0.701,0.137,1.019,0.137
					c0.352,0,0.619-0.088,0.814-0.268c0.201-0.185,0.39-0.479,0.589-0.789c0.374-0.582,0.798-1.241,1.398-1.298
					c0.142-0.013,0.275-0.028,0.398-0.042c0.261-0.029,0.487-0.053,0.669-0.053c0.31,0,0.469,0.074,0.549,0.254
					c0.158,0.356,0.947,1.039,1.61,1.039c0.092,0,0.18-0.014,0.26-0.04c0.478-0.159,0.994-1.708,1.335-2.733
					c0.122-0.367,0.238-0.714,0.271-0.745c0.123-0.041,2.799-0.552,4.164-0.552c0.526,0,0.698,0.076,0.75,0.14
					c0.111,0.135,0.089,0.332,0.064,0.56c-0.03,0.274-0.064,0.586,0.148,0.845c0.232,0.284,0.725,0.455,1.505,0.525
					c1.844,0.165,5.9,0.394,8.315,0.394c1.271,0,1.972-0.058,2.144-0.177c0.097-0.067,0.197-0.129,0.294-0.189
					c0.301-0.186,0.561-0.346,0.569-0.567c0.006-0.155-0.113-0.315-0.373-0.503c-0.448-0.324-1.385-0.721-2.212-1.071
					c-0.64-0.271-1.193-0.506-1.308-0.62c-0.044-0.044-0.123-0.113-0.223-0.202c-0.489-0.432-1.636-1.445-1.42-1.947
					c0.099-0.23,0.284-0.75,0.48-1.3c0.292-0.82,0.691-1.938,0.789-2.025c0.127,0.014,1.589,0.325,3.004,0.626
					c1.49,0.317,3.031,0.645,3.407,0.711c0.137,0.024,0.324,0.036,0.558,0.036c0.999,0,2.55-0.22,3.071-0.394
					c0.211-0.07,0.388-0.091,0.558-0.112c0.373-0.044,0.726-0.086,1.37-0.608c0.282-0.228,0.86-0.71,1.529-1.269
					c1.589-1.326,3.765-3.142,4.356-3.546c0.463-0.317,1.94-2.396,3.369-4.406c1.188-1.671,2.309-3.25,2.654-3.534
					c0.371-0.306,1.622-1.652,2.832-2.953c1.258-1.353,2.559-2.752,2.783-2.887c0.411-0.247,4.431-1.097,5.435-1.097
					c0.142,0,0.182,0.018,0.192,0.025c0.089,0.063,0.314,0.37,0.6,0.758c0.702,0.954,1.763,2.396,2.405,2.46
					c0.086,0.008,0.183,0.013,0.288,0.013c0.938,0,2.47-0.346,2.682-0.558c0.071-0.071,0.124-0.272,0.19-0.526
					c0.124-0.473,0.295-1.121,0.663-1.121c0.08,0,0.169,0.03,0.264,0.09c0.321,0.203,1.151,0.587,2.111,1.033
					c1.514,0.702,3.398,1.575,3.587,1.9c0.323,0.555,1.263,1.934,1.654,2.369c0.278,0.309,1.216,0.445,2.302,0.603
					c0.519,0.075,1.055,0.153,1.551,0.255c0.956,0.197,1.453,0.613,1.815,0.916c0.217,0.182,0.389,0.326,0.592,0.377
					c0.355,0.089,1.825,0.252,2.898,0.37c0.533,0.059,0.954,0.106,1.029,0.121c0.421,0.084,1.545,0.382,1.579,0.553
					c0.04,0.198-0.608,1.346-1.223,1.477c-0.16,0.034-0.315,0.036-0.464,0.037c-0.417,0.004-0.776,0.007-0.811,0.797
					c-0.004,0.099-0.009,0.209-0.015,0.328c-0.052,1.101-0.138,2.944,0.108,3.435c0.28,0.56,3.821,2.652,4.747,2.961
					c0.536,0.179,1.328,0.356,2.093,0.527c0.576,0.129,1.12,0.251,1.521,0.365c0.261,0.074,0.566,0.139,0.889,0.207
					c0.847,0.178,1.806,0.379,2.445,0.858c0.851,0.638,3.784,2.322,5.232,2.593c0.313,0.059,0.712,0.152,1.174,0.261
					c1.191,0.28,2.674,0.628,3.758,0.628c0.441,0,0.785-0.06,1.022-0.178c0.379-0.189,1.046-0.634,1.819-1.149
					c1.634-1.089,3.667-2.445,4.591-2.504c0.221-0.014,0.443-0.021,0.679-0.021c0.42,0,0.83,0.022,1.305,0.047
					c0.621,0.033,1.324,0.07,2.261,0.07c0.215,0,0.437-0.002,0.66-0.006c1.62-0.029,3.118-0.541,4.109-0.88
					c0.533-0.182,0.905-0.31,1.057-0.281c0.223,0.045,0.795,0.744,1.347,1.42c0.535,0.655,1.089,1.333,1.493,1.651
					c0.842,0.665,4.019,2.547,4.607,2.682c0.189,0.044,0.555,0.068,1.017,0.098c0.952,0.063,2.256,0.149,2.946,0.479
					c0.441,0.211,1.06,0.668,1.716,1.151c0.856,0.632,1.742,1.284,2.304,1.438c0.029,0.008,0.062,0.012,0.096,0.012
					c0.717,0,2.352-1.814,3.665-3.272c0.682-0.756,1.27-1.41,1.481-1.515c0.16-0.08,0.506-0.091,0.824-0.091
					c0.154,0,0.321,0.003,0.496,0.006c1.177,0.02,2.704,0.047,3.242-0.729c0.5-0.723,0.521-3.146,0.537-5.094
					c0.01-1.137,0.018-2.119,0.131-2.264c0.314-0.403,1.972-4.168,2.235-4.87C446.846,271.991,446.633,271.586,446.262,270.984z"/>
				<path fill="#FFFDFD" d="M208.003,285.648c-0.766,0.527-0.943,1.236-0.862,1.684c0.041,0.227,0.014,0.415-0.008,0.566
					c-0.025,0.173-0.045,0.309,0.065,0.391c0.028,0.021,0.072,0.031,0.137,0.031c0.08,0,0.187-0.015,0.311-0.031
					c0.169-0.023,0.38-0.051,0.593-0.051c0.118,0,0.209,0.028,0.31,0.046v-3.045C208.356,285.392,208.17,285.533,208.003,285.648z"
					/>
				<path fill="#CF1400" d="M210.635,283.64c0.298-0.194,0.441-0.45,0.423-0.762c-0.026-0.455-0.396-0.886-0.643-1.009
					c-0.097-0.048-0.352-0.072-0.781-0.072c-0.309,0-0.691,0.014-1.084,0.03v3.411c0.17-0.134,0.348-0.276,0.531-0.424
					C209.599,284.398,210.133,283.967,210.635,283.64z"/>
				<path fill="#CF1400" stroke="#FFFFFF" stroke-width="0.75" stroke-miterlimit="10" d="M409.287,232.017
					c0.3-0.561,0.596-1.113,0.831-1.551c0.191,0.144,1.211,0.87,2.221,0.83c0.347-0.013,0.837,0.042,1.362,0.101
					c0.562,0.063,1.143,0.129,1.667,0.129c0.696,0,1.142-0.123,1.365-0.375c0.663-0.752,3.984-6.194,4.017-6.249l0.004-0.008
					c0.051-0.171,1.251-4.202,1.339-4.822c0.091-0.636-4.286-4.035-4.473-4.179l-0.012-0.01l-0.015,0.003
					c-0.008,0.002-0.858,0.178-1.612,0.178c-0.439,0-0.759-0.058-0.951-0.174c-0.288-0.173-0.796-1.098-1.334-2.078
					c-0.681-1.24-1.385-2.522-1.784-2.522c-0.009,0-0.017,0.001-0.025,0.002c-0.228,0.03-1.2,0.204-2.431,0.423
					c-2.414,0.43-5.721,1.019-6.308,1.049c-0.578,0.028-1.846-0.841-2.861-1.537c-0.526-0.36-0.98-0.671-1.227-0.779
					c-0.629-0.275-3.742-0.876-5.05-0.876c-0.272,0-0.453,0.024-0.553,0.074c-0.298,0.149-0.695,0.701-1.08,1.234
					c-0.387,0.537-0.787,1.092-0.996,1.092c-0.013,0-0.026-0.002-0.037-0.007c-0.152-0.068-0.299-0.098-0.429-0.125
					c-0.217-0.045-0.388-0.08-0.493-0.263c-0.053-0.093-0.157-0.585-0.29-1.209c-0.299-1.412-0.752-3.545-1.195-3.798
					c-0.37-0.211-3.016-0.831-5.35-1.378c-1.519-0.356-2.954-0.692-3.079-0.763c-0.082-0.047-1.033-0.719-2.38-1.676H236.162v-50.35
					c-4.401-2.189-9.394-4.708-9.482-4.752l-0.014-0.004c-0.072-0.003-7.199-0.268-8.742-0.312c-1.066-0.03-6.153-1.762-9.373-3.203
					v58.621H103.745c-0.03,0.853-0.007,1.776,0.014,2.476c0.015,0.504,0.026,0.903,0.006,1.006
					c-0.017,0.089-0.061,0.169-0.111,0.262c-0.093,0.172-0.209,0.387-0.209,0.77c0,0.218,0.066,0.666,0.143,1.184
					c0.126,0.847,0.282,1.901,0.188,2.287c-0.113,0.466,0.389,1.124,0.755,1.605c0.135,0.177,0.251,0.329,0.299,0.425
					c0.031,0.062,0.17,0.326,0.38,0.725c0.988,1.881,3.614,6.878,3.945,7.834c0.179,0.517,0.382,1.151,0.597,1.822
					c0.265,0.825,0.538,1.679,0.785,2.37c0.336,0.94,0.723,4.247,0.911,6.496h97.101v49.811c0.392-0.016,0.774-0.03,1.084-0.03
					c0.429,0,0.685,0.023,0.781,0.072c0.246,0.123,0.617,0.553,0.643,1.009c0.018,0.312-0.125,0.568-0.423,0.762
					c-0.502,0.327-1.036,0.757-1.553,1.174c-0.184,0.148-0.361,0.291-0.531,0.424v3.045c0.244,0.043,0.457,0.12,0.607,0.27
					c0.234,0.234,0.712,0.786,1.266,1.426c0.931,1.076,1.986,2.295,2.352,2.547c0.199,0.138,1.972,1.35,2.747,1.35
					c0.031,0,0.06-0.002,0.087-0.006c0.453-0.065,2.981-1.181,4.492-1.848c0.589-0.26,1.015-0.448,1.089-0.473
					c0,0,0.002-0.001,0.009-0.001c0.473,0,5.676,2.328,6.018,2.842c0.212,0.318,0.516,1.781,0.738,2.85
					c0.182,0.876,0.279,1.335,0.337,1.392c0.021,0.021,0.061,0.029,0.137,0.029c0.537,0,2.882-0.504,4.048-1.003
					c0.962-0.412,2.763-0.775,3.685-0.915v-64.728H409.287z"/>
			</g>
			<path fill="#CF1400" stroke="#FFFFFF" stroke-width="0.75" stroke-miterlimit="10" d="M166.362,182.695
				c-0.163,3.333-0.554,6.606-1.158,9.804c1.533-0.19,3.094-0.289,4.678-0.289s3.145,0.099,4.678,0.289
				c-0.604-3.198-0.995-6.471-1.158-9.804c3.333,0.163,6.606,0.554,9.804,1.158c-0.19-1.533-0.289-3.094-0.289-4.678
				c0-1.584,0.099-3.145,0.289-4.678c-3.198,0.604-6.471,0.995-9.804,1.158c0.163-3.333,0.554-6.606,1.158-9.804
				c-1.533,0.19-3.094,0.289-4.678,0.289s-3.145-0.099-4.678-0.289c0.604,3.198,0.995,6.471,1.158,9.804
				c-3.333-0.163-6.606-0.554-9.804-1.158c0.19,1.533,0.289,3.094,0.289,4.678c0,1.584-0.099,3.145-0.289,4.678
				C159.756,183.25,163.029,182.859,166.362,182.695z"/>
			<g>
				<path fill="#FFFDFD" stroke="#FFFFFF" stroke-width="0.75" stroke-miterlimit="10" d="M111.45,232.017
					c0.061,0.733,0.102,1.355,0.112,1.744c0.08,2.975-0.001,7.013-0.845,9.354c-0.407,1.128-1.435,3.54-4.022,8.627
					c-0.062,0.121-0.104,0.205-0.124,0.245c-0.216,0.433-2.722,3.208-3.648,3.913c-0.94,0.716-4.017,3.167-4.29,3.622
					c-0.28,0.466-1.888,4.409-2.055,4.867c-0.176,0.484-0.972,2.299-0.98,2.317l-0.013,0.029l0.027,0.015
					c0.029,0.016,2.954,1.566,3.88,2.052c0.113,0.059,0.221,0.117,0.325,0.171c0.743,0.395,1.28,0.68,1.876,0.68
					c0.227,0,0.62-0.055,1.076-0.119c0.618-0.086,1.318-0.184,1.859-0.184c0.274,0,0.483,0.026,0.62,0.078
					c0.35,0.131,0.516,0.485,0.693,0.86c0.173,0.368,0.37,0.786,0.773,1.055c0.415,0.277,1.562,0.594,2.672,0.901
					c1.034,0.286,2.01,0.556,2.21,0.746c0.118,0.112,0.304,0.333,0.519,0.589c0.558,0.663,1.322,1.572,1.752,1.605
					c0.076,0.006,0.196,0.009,0.357,0.009c0.962,0,3.346-0.113,3.628-0.235c0.162-0.07,1.482-1.547,3.476-3.794
					c1.405-1.583,2.732-3.077,2.999-3.303c0.27-0.228,0.679-0.339,1.252-0.339c0.425,0,0.877,0.062,1.264,0.124
					c0.335,0.053,0.908,0.272,1.514,0.505c0.919,0.352,1.968,0.754,2.509,0.699c0.507-0.051,1.412-0.604,2.211-1.092
					c0.603-0.369,1.173-0.717,1.401-0.736c0.382-0.032,2.344-0.063,3.53-0.063c0.542,0,0.886,0.006,0.967,0.018
					c0.331,0.047,2.169,0.502,3.695,1.069c0.281,0.105,0.571,0.216,0.851,0.325c1.15,0.444,2.237,0.864,2.916,0.864
					c0.099,0,0.189-0.009,0.266-0.027c0.382-0.09,1.272-0.15,2.215-0.15c0.912,0,1.676,0.055,2.096,0.15
					c0.451,0.103,1.481,0.788,2.571,1.514c1.278,0.851,2.599,1.731,3.272,1.875c0.556,0.119,1.551,0.19,2.661,0.19
					c0.847,0,1.794-0.046,1.999-0.148c0.163-0.081,0.798-1.09,1.825-2.742c0.716-1.152,1.5-2.411,2.018-3.135
					c0.51-2.906,0.853-5.868,1.001-8.883c-3.333,0.163-6.606,0.554-9.804,1.158c0.19-1.533,0.289-3.094,0.289-4.678
					c0-1.584-0.099-3.145-0.289-4.678c3.198,0.604,6.471,0.995,9.804,1.158c-0.163-3.333-0.554-6.606-1.158-9.804
					c1.533,0.19,3.094,0.289,4.678,0.289s3.145-0.099,4.678-0.289c-0.604,3.198-0.995,6.471-1.158,9.804
					c3.333-0.163,6.606-0.554,9.804-1.158c-0.19,1.533-0.289,3.094-0.289,4.678c0,1.584,0.099,3.145,0.289,4.678
					c-3.198-0.604-6.471-0.995-9.804-1.158c0.028,0.567,0.071,1.129,0.112,1.693c0.559-0.029,1.119-0.052,1.685-0.052
					c1.342,0,2.665,0.084,3.963,0.244c-0.073-0.389-0.128-0.784-0.194-1.175c2.407,0.366,4.335,0.705,4.455,0.841
					c0.16,0.18,0.239,0.656,0.197,1.185c-0.044,0.551-0.203,1.001-0.417,1.175c-0.471,0.385-1.963,1.824-2.15,2.196
					c-0.021,0.041-0.017,0.092,0.01,0.152c0.233,0.506,2.222,1.697,3.044,1.903c0.098,0.025,0.226,0.037,0.379,0.037
					c0.572,0,1.438-0.171,2.203-0.322c0.597-0.118,1.161-0.229,1.449-0.229c0.073,0,0.126,0.007,0.157,0.021
					c0.179,0.08,0.685,0.85,1.219,1.666c0.624,0.951,1.331,2.03,1.761,2.388c0.873,0.728,4.314,3.982,4.314,4.479
					c0,0.151-0.025,0.378-0.055,0.641c-0.076,0.68-0.169,1.526,0.059,1.918c0.323,0.554,1.4,1.222,1.772,1.176
					c0.108-0.013,0.335-0.098,0.622-0.204c0.494-0.183,1.17-0.434,1.567-0.434c0.138,0,0.232,0.03,0.279,0.091l0.056,0.073
					c0.38,0.493,1.534,1.992,2.474,1.992c0.013,0,0.026,0,0.04-0.001c0.112-0.005,0.215-0.011,0.312-0.017
					c0.162-0.01,0.302-0.018,0.428-0.018c0.441,0,0.706,0.103,1.013,0.687c0.112,0.213,0.198,0.427,0.281,0.635
					c0.249,0.619,0.463,1.154,1.216,1.256c0.154,0.021,0.373,0.031,0.668,0.031c0.478,0,1.092-0.027,1.686-0.054
					c0.182-0.008,0.362-0.015,0.544-0.023v-49.811H111.45z"/>
				<path fill="#CF1400" stroke="#FFFFFF" stroke-width="0.75" stroke-miterlimit="10" d="M183.205,259.036
					c-0.19-1.533-0.289-3.094-0.289-4.678c0-1.584,0.099-3.145,0.289-4.678c-3.198,0.604-6.471,0.995-9.804,1.158
					c0.163-3.333,0.554-6.606,1.158-9.804c-1.533,0.19-3.094,0.289-4.678,0.289s-3.145-0.099-4.678-0.289
					c0.604,3.198,0.995,6.471,1.158,9.804c-3.333-0.163-6.606-0.554-9.804-1.158c0.19,1.533,0.289,3.094,0.289,4.678
					c0,1.584-0.099,3.145-0.289,4.678c3.198-0.604,6.471-0.995,9.804-1.158c-0.148,3.015-0.491,5.977-1.001,8.883
					c0.189-0.264,0.345-0.462,0.446-0.55c0.462-0.404,1.549-3.822,2.342-6.317c0.407-1.279,0.791-2.487,0.865-2.556
					c0.002-0.001,0.018-0.006,0.094-0.006c0.313,0,1.244,0.095,2.487,0.245c-0.111,0.732-0.224,1.463-0.361,2.186
					c0.751-0.093,1.512-0.152,2.279-0.192c-0.041-0.563-0.084-1.126-0.112-1.693C176.734,258.041,180.007,258.431,183.205,259.036z"
					/>
			</g>
			<g>
				<path fill="#FFFDFD" stroke="#FFFFFF" stroke-width="0.75" stroke-miterlimit="10" d="M370.298,188.072
					c0.309-0.221,1.852-0.667,3.344-1.099c1.806-0.523,2.91-0.852,2.999-1.008c0.071-0.124,0.098-0.773,0.14-1.91
					c0.055-1.488,0.13-3.525,0.398-4.385c0.417-1.335,1.786-6.641,1.786-6.923c0-0.308-4.171-2.271-5.78-2.619
					c-1.193-0.258-10.279-2.185-11.155-2.231c-0.319-0.017-1.804,0.178-3.538,0.407c-2.394,0.315-5.374,0.708-6.564,0.708
					c-0.228,0-0.382-0.014-0.459-0.043c-0.697-0.257-0.962-1.193-1.138-1.813c-0.034-0.119-0.063-0.221-0.091-0.307
					c-0.067-0.201-0.494-0.685-1.085-1.355c-1.008-1.142-2.388-2.707-2.841-3.865c-0.252-0.646-2.488-6.318-3.367-6.576
					c-0.753-0.221-3.547-0.352-3.665-0.358l-0.008,0l-0.008,0.004c-0.059,0.028-5.89,2.853-6.857,2.853
					c-0.014,0-0.026-0.001-0.038-0.002c-0.505-0.053-2.55-1.981-4.043-3.388c-1.167-1.1-1.834-1.723-1.977-1.74
					c-0.298-0.037-2.655-0.176-3.86-0.176c-0.395,0-0.626,0.015-0.705,0.044c-0.365,0.137-1.038,1.247-1.313,2.027
					c-0.256,0.726-1.055,2.705-1.111,2.845c-0.16,0.136-2.325,1.982-2.325,2.518c0,0.193,0.106,0.694,0.229,1.274
					c0.182,0.861,0.486,2.301,0.287,2.35c-0.024,0.006-0.06,0.009-0.109,0.009c-0.629,0-2.596-0.455-2.705-0.564
					c-0.006-0.051-0.071-0.096-0.176-0.169c-0.248-0.172-0.663-0.46-0.538-1.02c0.19-0.854-0.02-3.022-0.044-3.266
					c-0.042-0.416-1.086-1.046-2.096-1.655c-0.112-0.067-0.222-0.134-0.328-0.199c-1.081-0.658-5.098-2.592-5.682-2.592
					c-0.301,0-1.987-0.06-3.617-0.118c-1.505-0.054-2.927-0.105-3.162-0.105c-0.463,0-1.523,0.296-1.901,0.862
					c-0.109,0.163-0.297,0.333-0.478,0.497c-0.285,0.258-0.554,0.501-0.515,0.714c0.02,0.109,0.117,0.196,0.295,0.265
					c0.844,0.328,2.286,1.342,2.121,1.922c-0.188,0.657-0.937,2.491-1.418,2.928c-0.194,0.177-0.844,0.27-1.879,0.27
					c-0.787,0-1.523-0.055-1.533-0.056c-0.02,0-2.02,0.002-2.948,0.134c-0.036,0.005-0.076,0.008-0.117,0.008
					c-0.589,0-1.57-0.535-2.286-0.926c-0.499-0.272-0.886-0.484-1.031-0.465c-0.345,0.043-2.701,0.618-4.198,1.072
					c-0.423,0.128-0.78,0.215-1.095,0.292c-0.782,0.19-1.254,0.305-1.642,0.79c-0.152,0.19-0.39,0.587-0.693,1.09
					c-0.569,0.948-1.359,2.26-2.095,3.034c-0.583,3.134-0.964,6.338-1.123,9.6c3.333-0.163,6.606-0.554,9.804-1.158
					c-0.19,1.533-0.289,3.094-0.289,4.678c0,1.584,0.099,3.145,0.289,4.678c-3.198-0.604-6.471-0.995-9.804-1.158
					c0.163,3.333,0.554,6.606,1.158,9.804c-1.533-0.19-3.094-0.289-4.678-0.289s-3.145,0.099-4.678,0.289
					c0.604-3.198,0.995-6.471,1.158-9.804c-3.333,0.163-6.606,0.554-9.804,1.158c0.19-1.533,0.289-3.094,0.289-4.678
					c0-1.584-0.099-3.145-0.289-4.678c3.198,0.604,6.471,0.995,9.804,1.158c-0.114-2.317-0.344-4.602-0.673-6.856
					c-0.343,0.088-0.61,0.161-0.761,0.212c-0.45,0.15-1.352,0.343-2.224,0.53c-1.517,0.325-2.444,0.533-2.523,0.691
					c-0.01,0.019-0.026,0.053-0.05,0.101c-1.118,2.28-1.951,3.681-2.347,3.945c-0.119,0.079-0.286,0.119-0.498,0.119
					c-0.793,0-1.955-0.562-1.966-0.567c-0.14-0.071-3.446-1.743-4.024-1.832c-0.083-0.013-0.266-0.019-0.559-0.019
					c-0.588,0-1.546,0.026-2.473,0.05c-0.936,0.025-1.904,0.051-2.504,0.051c-0.459,0-0.57-0.016-0.597-0.025
					c-0.039-0.073-0.273-0.256-0.993-0.803c-0.911-0.692-2.435-1.849-2.435-2.121c0-0.445,1.522-4.241,1.736-4.668
					c0.163-0.325,0.682-1.467,0.538-2.517c-0.047-0.345-0.153-0.671-0.256-0.986c-0.192-0.59-0.359-1.099-0.104-1.58
					c0.491-0.927,0.853-2.16,0.258-2.585c-0.422-0.301-1.838-0.62-2.977-0.877c-0.578-0.13-1.077-0.243-1.359-0.332
					c-0.356-0.112-3.299-1.558-6.57-3.185v50.35h141.967c-3.596-2.555-10.035-7.16-10.443-7.452
					C367.815,194.867,369.708,188.493,370.298,188.072z"/>
				<path fill="#CF1400" stroke="#FFFFFF" stroke-width="0.75" stroke-miterlimit="10" d="M259.718,174.499
					c0.19,1.533,0.289,3.094,0.289,4.678c0,1.584-0.099,3.145-0.289,4.678c3.198-0.604,6.471-0.995,9.804-1.158
					c-0.163,3.333-0.554,6.606-1.158,9.804c1.533-0.19,3.094-0.289,4.678-0.289s3.145,0.099,4.678,0.289
					c-0.604-3.198-0.995-6.471-1.158-9.804c3.333,0.163,6.606,0.554,9.804,1.158c-0.19-1.533-0.289-3.094-0.289-4.678
					c0-1.584,0.099-3.145,0.289-4.678c-3.198,0.604-6.471,0.995-9.804,1.158c0.16-3.263,0.541-6.467,1.123-9.6
					c-0.235,0.247-0.465,0.442-0.68,0.55c-0.803,0.401-3.908,1.156-6.175,1.706c-0.763,0.185-1.46,0.355-1.979,0.489
					c0.328,2.254,0.559,4.539,0.673,6.856C266.19,175.494,262.916,175.103,259.718,174.499z"/>
			</g>
			<path fill="#CF1400" stroke="#FFFFFF" stroke-width="0.75" stroke-miterlimit="10" d="M276.561,250.839
				c0.163-3.333,0.554-6.606,1.158-9.804c-1.533,0.19-3.094,0.289-4.678,0.289s-3.145-0.099-4.678-0.289
				c0.604,3.198,0.995,6.471,1.158,9.804c-3.333-0.163-6.606-0.554-9.804-1.158c0.19,1.533,0.289,3.094,0.289,4.678
				c0,1.584-0.099,3.145-0.289,4.678c3.198-0.604,6.471-0.995,9.804-1.158c-0.163,3.333-0.554,6.606-1.158,9.804
				c1.533-0.19,3.094-0.289,4.678-0.289s3.145,0.099,4.678,0.289c-0.604-3.198-0.995-6.471-1.158-9.804
				c3.333,0.163,6.606,0.554,9.804,1.158c-0.19-1.533-0.289-3.094-0.289-4.678c0-1.584,0.099-3.145,0.289-4.678
				C283.167,250.285,279.894,250.675,276.561,250.839z"/>
		</g>
		
			<path fill="#CF1400" stroke="#FFFFFF" stroke-width="0.75" stroke-linecap="round" stroke-linejoin="round" stroke-miterlimit="10" d="
			M263.588,175.355c-3.188,1.967-4.235,2.826-5.266,3.904c-0.599-0.329-2.416-0.602-2.713-0.592
			c-1.477,0.053-2.886,0.58-4.181,1.288c-3.001,1.078-6.024,3.405-8.316,4.349c-6.176,2.543-12.342,5.243-18.583,7.583
			c-0.121,0.045-0.251,0.093-0.385,0.141c-1.023,0.112-3.174,1.447-4.133,1.555c-4.452,0.502-10.425-0.163-14.087-3.257
			c-0.046-0.198-0.086-0.402-0.113-0.618c0.931-1.329,1.676-2.747,1.742-4.458c0.176-4.578-3.157-8.961-6.571-11.681
			c-2.741-2.184-7.75-2.684-10.603-0.451c-1.277,1-1.778,2.091-1.939,3.239c-0.537,1.011-0.822,2.131-1.126,3.244
			c-0.267,0.98,0,2.211,0.107,3.189c0.002,0.019-2.802-0.981-2.595-0.903c-2.525-0.947-8.954-1.464-10.453,1.671
			c-0.771,1.611-0.612,2.929-0.612,4.713c0,0.626,0.268,2.782,0.417,3.313c-0.59,1.086-2.008,1.475-4.583,0.917
			c-3.773-0.817-7.094-4.29-10.5-6c-3.361-1.687-6.592-3.396-9.743-5.462c-1.616-1.06-3.459-1.968-5.424-2.038
			c-0.297-0.011-2.113,0.262-2.713,0.592c-1.032-1.078-2.078-1.938-5.266-3.904c-3.344-2.063-14.064-0.359-14.094-0.135
			c-0.029,0.216,0.163,0.424,0.51,0.641c1.805,1.61,9.265,7.806,16.892,7.726c0.091,0.005,0.171,0.008,0.227,0.007
			c-0.388,1.852-0.629,3.92,0.592,5.385c1.504,1.805,3.889,3.092,6.178,4.054c1.011,0.721,2.04,1.419,3.09,2.097
			c2.821,1.822,5.087,4.733,7.994,6.333c1.045,0.576,2.286,1.004,3.613,1.378c0.753,0.65,1.453,1.314,2.025,2.236
			c0.196,0.316,0.377,0.64,0.557,0.965c-0.039,0.915-0.112,1.828-0.267,2.748c-0.179,1.062-0.62,2.079-1.083,3.09
			c0.005,0.432-0.018,0.861-0.036,1.29c-0.584,1.863-1.132,3.738-1.456,5.683c-0.89,5.337-0.304,10.816-0.304,16.196
			c0,3.225,0.429,7.892,3.415,9.937c0.517,0.698,1.169,1.273,2.036,1.645c0.219,0.094,0.433,0.135,0.639,0.136
			c0.119,0.075,0.245,0.141,0.386,0.182c0.061,0.018,0.098,0.027,0.124,0.032c0.022,0.013,0.048,0.028,0.091,0.05
			c0.126,0.066,0.242,0.149,0.359,0.23c-0.086,3.156-0.175,6.311-0.175,9.491c0,1.835,0.028,2.931,1.377,4.206
			c1.9,1.797,2.035,3.745,1.894,6.377c-0.149,2.784,1.67,3.82,3.846,4.172c-0.294,4.153-3.783,66.028-3.783,66.028l0.688,0.813
			c0,0-0.906,2.734-1,3.406c6.641,2.781,10.875,4.031,10.875,4.031l-0.688-5l0.875-0.438c0,0,4.377-29.945,5.583-35.575
			c1.5-7,5.038-23.462,5.595-24.701c0.38,1.205,3.134,12.448,4.071,27.451c1,16,1.25,35.825,1.25,35.825l0.961,0.884
			c0,0-1.284,2.642-2.336,5.648c6.099,1.307,9.604,1.656,9.604,1.656l0.245-6.726l0.963-0.837l1.396-39.492
			c0,0,1.664-30.634,1.729-32.271c2.75-1.063,2.313-3.063,3.25-7.188c0.577-2.537,0.808-2.095,0.631-4.068
			c1.242-3.377,1.307-7.183,1.307-10.786c0-9.121-0.724-18.281-1.036-27.414c0.386-2.845,1.02-5.654,2.054-8.144
			c0.234-0.241,5.116-4.16,6.233-4.858c2.729-1.708,6.614-3.39,9.167-4.75c5.151-2.745,8.788-5.144,14-7.75
			c2.474-1.237,4.794-2.724,7.083-4.25c1.971-1.314,4.013-2.931,4.367-3.356c1.22-1.465,2.98-4.533,2.592-6.385
			c0,0,6.78,0.408,16.391-7.358c0.793-0.361,1.282-0.679,1.237-1.016C277.652,174.996,266.932,173.292,263.588,175.355z"/>
		<g>
			<path fill="none" d="M57.999,197.127c-5.742,93.988,65.796,174.834,159.784,180.576c93.988,5.742,174.834-65.796,180.576-159.784
				"/>
			<text transform="matrix(0.0534 0.9986 -0.9986 0.0534 37.2796 205.4029)"><tspan x="0" y="0" fill="#FFFFFF" font-family="'BPGNinoMtavruli-Bold'" font-size="48">ს</tspan><tspan x="45.076" y="-2.399" fill="#FFFFFF" font-family="'BPGNinoMtavruli-Bold'" font-size="48" rotate="-13.543">ა</tspan><tspan x="87.684" y="-15.056" fill="#FFFFFF" font-family="'BPGNinoMtavruli-Bold'" font-size="48" rotate="-27.056">ქ</tspan><tspan x="126.648" y="-37.616" fill="#FFFFFF" font-family="'BPGNinoMtavruli-Bold'" font-size="48" rotate="-40.44">ა</tspan><tspan x="160.439" y="-69.174" fill="#FFFFFF" font-family="'BPGNinoMtavruli-Bold'" font-size="48" rotate="-56.246">რ</tspan><tspan x="191.259" y="-122.154" fill="#FFFFFF" font-family="'BPGNinoMtavruli-Bold'" font-size="48" rotate="-74.914">თ</tspan><tspan x="203.044" y="-181.143" fill="#FFFFFF" font-family="'BPGNinoMtavruli-Bold'" font-size="48" rotate="-90.864">ვ</tspan><tspan x="199.997" y="-226.049" fill="#FFFFFF" font-family="'BPGNinoMtavruli-Bold'" font-size="48" rotate="-104.546">ე</tspan><tspan x="185.831" y="-272.673" fill="#FFFFFF" font-family="'BPGNinoMtavruli-Bold'" font-size="48" rotate="-122.361">ლ</tspan><tspan x="143.302" y="-330.22" fill="#FFFFFF" font-family="'BPGNinoMtavruli-Bold'" font-size="48" rotate="-142.571">ო</tspan></text>
			<path fill="none" d="M57.291,219.217C50.436,125.304,121.01,43.616,214.923,36.76S390.525,100.48,397.38,194.393"/>
			<text transform="matrix(0.6973 -0.7168 0.7168 0.6973 110.7162 110.8934)"><tspan x="0" y="0" fill="#FFFFFF" font-family="'BPGNinoMtavruli-Bold'" font-size="48">მ</tspan><tspan x="36.449" y="0.65" fill="#FFFFFF" font-family="'BPGNinoMtavruli-Bold'" font-size="48" rotate="16.303">ო</tspan><tspan x="83.149" y="16.967" fill="#FFFFFF" font-family="'BPGNinoMtavruli-Bold'" font-size="48" rotate="32.68">ვ</tspan><tspan x="113.576" y="38.22" fill="#FFFFFF" font-family="'BPGNinoMtavruli-Bold'" font-size="48" rotate="46.827">ი</tspan><tspan x="138.397" y="67.001" fill="#FFFFFF" font-family="'BPGNinoMtavruli-Bold'" font-size="48" rotate="61.085">ა</tspan><tspan x="155.106" y="98.688" fill="#FFFFFF" font-family="'BPGNinoMtavruli-Bold'" font-size="48" rotate="77.183">რ</tspan><tspan x="164.172" y="145.607" fill="#FFFFFF" font-family="'BPGNinoMtavruli-Bold'" font-size="48" rotate="95.382">ო</tspan><tspan x="157.991" y="193.829" fill="#FFFFFF" font-family="'BPGNinoMtavruli-Bold'" font-size="48" rotate="113.883">თ</tspan></text>
		</g>
	</g>
</g>
</svg>
