<?xml version="1.0" encoding="utf-8"?>
<!-- Generator: Adobe Illustrator 17.0.0, SVG Export Plug-In . SVG Version: 6.00 Build 0)  -->
<!DOCTYPE svg PUBLIC "-//W3C//DTD SVG 1.1//EN" "http://www.w3.org/Graphics/SVG/1.1/DTD/svg11.dtd">
<svg version="1.1" id="_x3F__x3F__x3F__x3F__1" xmlns="http://www.w3.org/2000/svg" xmlns:xlink="http://www.w3.org/1999/xlink"
	 x="0px" y="0px" width="86.313px" height="39.496px" viewBox="0 0 86.313 39.496" enable-background="new 0 0 86.313 39.496"
	 xml:space="preserve">
<g>
	<g>
		<path d="M13.64,20.761l0.396,0.087l-1.396,4.541H0v-0.457h0.613c0.69,0,1.184-0.229,1.481-0.69
			c0.168-0.264,0.253-0.872,0.253-1.827V11.616c0-1.044-0.113-1.699-0.338-1.962C1.697,9.292,1.231,9.111,0.613,9.111H0V8.654h7.392
			v0.457C6.524,9.103,5.917,9.185,5.567,9.358c-0.349,0.173-0.588,0.391-0.716,0.654c-0.129,0.263-0.193,0.893-0.193,1.888v10.514
			c0,0.684,0.064,1.152,0.193,1.407c0.096,0.173,0.244,0.301,0.445,0.383c0.2,0.082,0.826,0.123,1.878,0.123h1.191
			c1.252,0,2.131-0.095,2.637-0.283c0.506-0.189,0.967-0.525,1.385-1.006C12.805,22.557,13.222,21.798,13.64,20.761z"/>
		<path d="M27.561,9.111V8.654h5.778v0.457h-0.613c-0.643,0-1.136,0.275-1.481,0.827c-0.168,0.255-0.253,0.848-0.253,1.777v6.788
			c0,1.678-0.162,2.98-0.487,3.906s-0.963,1.72-1.914,2.382s-2.245,0.993-3.882,0.993c-1.782,0-3.135-0.316-4.058-0.95
			c-0.923-0.633-1.577-1.484-1.962-2.555c-0.257-0.731-0.386-2.105-0.386-4.122v-6.541c0-1.028-0.138-1.703-0.415-2.024
			c-0.276-0.321-0.725-0.481-1.342-0.481h-0.614V8.654h7.055v0.457H22.36c-0.675,0-1.156,0.218-1.445,0.654
			c-0.2,0.296-0.301,0.913-0.301,1.851v7.293c0,0.65,0.059,1.395,0.175,2.234s0.327,1.493,0.632,1.962s0.744,0.855,1.318,1.16
			c0.573,0.305,1.278,0.457,2.112,0.457c1.067,0,2.022-0.239,2.865-0.716c0.843-0.478,1.419-1.088,1.728-1.833
			c0.31-0.744,0.464-2.005,0.464-3.782v-6.775c0-1.044-0.112-1.699-0.337-1.962c-0.313-0.362-0.778-0.543-1.396-0.543H27.561z"/>
		<path d="M76.972,9.568v6.615h3.588c0.931,0,1.553-0.144,1.865-0.432c0.418-0.378,0.65-1.045,0.698-1.999h0.446v5.825h-0.446
			c-0.112-0.814-0.225-1.337-0.337-1.567c-0.145-0.288-0.381-0.514-0.71-0.679s-0.835-0.247-1.517-0.247h-3.588V22.6
			c0,0.74,0.032,1.191,0.097,1.352c0.063,0.16,0.176,0.288,0.337,0.383c0.16,0.094,0.465,0.142,0.915,0.142h2.769
			c0.923,0,1.593-0.065,2.011-0.197c0.417-0.132,0.818-0.391,1.204-0.777c0.497-0.511,1.007-1.279,1.528-2.309h0.481l-1.408,4.196
			h-12.58v-0.457h0.577c0.386,0,0.751-0.094,1.096-0.283c0.257-0.132,0.432-0.329,0.523-0.593c0.093-0.263,0.139-0.802,0.139-1.616
			V11.567c0-1.061-0.104-1.715-0.313-1.962c-0.289-0.329-0.771-0.494-1.445-0.494h-0.577V8.654h12.58l0.181,3.666h-0.47
			c-0.169-0.88-0.355-1.485-0.56-1.814c-0.205-0.329-0.508-0.58-0.909-0.753c-0.321-0.124-0.887-0.185-1.697-0.185H76.972z"/>
	</g>
	<g>
		<path d="M6.555,33.264l0.137,2.026H6.555c-0.182-0.606-0.44-1.043-0.777-1.31s-0.741-0.4-1.213-0.4
			c-0.396,0-0.753,0.101-1.072,0.302c-0.319,0.2-0.571,0.521-0.754,0.96c-0.184,0.439-0.274,0.986-0.274,1.639
			c0,0.54,0.086,1.007,0.259,1.402s0.433,0.699,0.78,0.91c0.347,0.211,0.743,0.316,1.188,0.316c0.387,0,0.729-0.083,1.024-0.249
			c0.296-0.165,0.621-0.494,0.976-0.986l0.136,0.088c-0.299,0.53-0.647,0.919-1.046,1.165s-0.871,0.369-1.419,0.369
			c-0.987,0-1.752-0.366-2.294-1.1c-0.404-0.545-0.606-1.186-0.606-1.924c0-0.595,0.133-1.142,0.399-1.64s0.634-0.884,1.101-1.158
			c0.468-0.273,0.979-0.411,1.532-0.411c0.431,0,0.855,0.105,1.274,0.316c0.123,0.065,0.211,0.098,0.264,0.098
			c0.079,0,0.147-0.028,0.206-0.084c0.076-0.079,0.131-0.189,0.163-0.33H6.555z"/>
		<path d="M17.181,33.264c0.773,0,1.443,0.294,2.011,0.882c0.566,0.587,0.851,1.32,0.851,2.199c0,0.905-0.286,1.657-0.857,2.255
			s-1.263,0.896-2.074,0.896c-0.82,0-1.51-0.292-2.067-0.875c-0.559-0.583-0.837-1.337-0.837-2.264c0-0.945,0.322-1.718,0.967-2.315
			C15.732,33.524,16.401,33.264,17.181,33.264z M17.098,33.585c-0.533,0-0.961,0.198-1.283,0.593
			c-0.401,0.492-0.603,1.213-0.603,2.162c0,0.974,0.208,1.722,0.624,2.246c0.319,0.398,0.741,0.598,1.266,0.598
			c0.56,0,1.021-0.218,1.387-0.654c0.364-0.437,0.547-1.125,0.547-2.066c0-1.02-0.2-1.779-0.602-2.28
			C18.111,33.784,17.666,33.585,17.098,33.585z"/>
		<path d="M30.821,39.359l-2.303-5.014v3.98c0,0.367,0.04,0.596,0.119,0.686c0.108,0.123,0.279,0.186,0.514,0.186h0.211v0.162
			h-2.074v-0.162h0.211c0.252,0,0.431-0.076,0.536-0.229c0.064-0.094,0.097-0.309,0.097-0.643v-3.893
			c0-0.264-0.029-0.454-0.088-0.572c-0.041-0.084-0.116-0.155-0.227-0.213c-0.109-0.057-0.286-0.086-0.529-0.086V33.4h1.688
			l2.162,4.662l2.127-4.662h1.688v0.162h-0.206c-0.255,0-0.436,0.077-0.541,0.229c-0.064,0.095-0.097,0.309-0.097,0.643v3.893
			c0,0.367,0.041,0.596,0.123,0.686c0.108,0.123,0.28,0.186,0.515,0.186h0.206v0.162h-2.531v-0.162h0.211
			c0.255,0,0.434-0.076,0.536-0.229c0.064-0.094,0.097-0.309,0.097-0.643v-3.98l-2.298,5.014H30.821z"/>
		<path d="M43.736,36.568v1.736c0,0.375,0.041,0.608,0.123,0.699c0.111,0.129,0.28,0.193,0.506,0.193h0.229v0.162h-2.553v-0.162
			h0.224c0.252,0,0.433-0.082,0.54-0.246c0.059-0.091,0.088-0.307,0.088-0.646v-3.85c0-0.375-0.039-0.607-0.118-0.699
			c-0.114-0.128-0.284-0.193-0.51-0.193h-0.224V33.4h2.184c0.533,0,0.953,0.055,1.262,0.165c0.307,0.109,0.566,0.295,0.777,0.556
			s0.316,0.57,0.316,0.928c0,0.486-0.16,0.882-0.481,1.186c-0.32,0.306-0.774,0.457-1.36,0.457c-0.144,0-0.299-0.01-0.465-0.03
			C44.105,36.641,43.927,36.61,43.736,36.568z M43.736,36.318c0.155,0.029,0.293,0.052,0.414,0.066
			c0.119,0.015,0.222,0.021,0.307,0.021c0.305,0,0.568-0.118,0.789-0.354c0.222-0.236,0.332-0.541,0.332-0.916
			c0-0.258-0.053-0.498-0.158-0.719c-0.105-0.222-0.255-0.387-0.448-0.497c-0.193-0.109-0.413-0.165-0.659-0.165
			c-0.149,0-0.342,0.028-0.576,0.084V36.318z"/>
		<path d="M56.934,37.364h-2.307l-0.404,0.94c-0.1,0.231-0.149,0.404-0.149,0.519c0,0.091,0.043,0.171,0.13,0.239
			c0.086,0.069,0.272,0.114,0.561,0.135v0.162h-1.877v-0.162c0.249-0.045,0.41-0.102,0.483-0.172
			c0.149-0.141,0.314-0.426,0.497-0.857l2.096-4.904h0.154l2.074,4.957c0.166,0.399,0.318,0.657,0.454,0.776
			c0.137,0.118,0.326,0.186,0.569,0.2v0.162h-2.352v-0.162c0.238-0.012,0.398-0.052,0.481-0.119
			c0.084-0.067,0.126-0.149,0.126-0.246c0-0.129-0.06-0.332-0.176-0.611L56.934,37.364z M56.811,37.039l-1.01-2.408l-1.037,2.408
			H56.811z"/>
		<path d="M65.449,33.4h1.617l3.644,4.469v-3.436c0-0.366-0.041-0.595-0.123-0.686c-0.108-0.123-0.28-0.186-0.515-0.186h-0.206V33.4
			h2.074v0.162h-0.211c-0.252,0-0.431,0.077-0.536,0.229c-0.064,0.095-0.097,0.309-0.097,0.643v5.022h-0.158l-3.929-4.799v3.669
			c0,0.367,0.039,0.596,0.119,0.686c0.11,0.123,0.282,0.186,0.514,0.186h0.211v0.162h-2.074v-0.162h0.207
			c0.254,0,0.435-0.076,0.54-0.229c0.064-0.094,0.097-0.309,0.097-0.643v-4.144c-0.173-0.202-0.304-0.335-0.394-0.399
			c-0.089-0.064-0.221-0.125-0.394-0.181c-0.085-0.026-0.214-0.04-0.387-0.04V33.4z"/>
		<path d="M82.773,33.4h2.078v0.162h-0.113c-0.077,0-0.188,0.034-0.334,0.102c-0.147,0.067-0.28,0.164-0.4,0.29
			s-0.268,0.331-0.443,0.615l-1.438,2.263v1.494c0,0.367,0.041,0.596,0.123,0.686c0.111,0.123,0.287,0.186,0.527,0.186h0.193v0.162
			h-2.531v-0.162h0.211c0.252,0,0.431-0.076,0.536-0.229c0.064-0.094,0.097-0.309,0.097-0.643v-1.41l-1.635-2.496
			c-0.193-0.293-0.324-0.476-0.394-0.549c-0.068-0.073-0.212-0.161-0.429-0.264c-0.059-0.029-0.144-0.045-0.254-0.045V33.4h2.549
			v0.162h-0.133c-0.138,0-0.264,0.033-0.38,0.098c-0.115,0.064-0.173,0.161-0.173,0.289c0,0.105,0.089,0.297,0.268,0.572l1.244,1.92
			l1.168-1.837c0.176-0.275,0.264-0.48,0.264-0.615c0-0.082-0.021-0.155-0.063-0.22c-0.042-0.064-0.103-0.115-0.183-0.151
			c-0.078-0.037-0.197-0.056-0.355-0.056V33.4z"/>
	</g>
	<g>
		<path fill="#57AFE3" d="M51.129,22.034c-0.204,0.352-0.4,0.568-0.768,0.748c-0.643,0.284-1.305,0.22-1.996,0.354
			c-0.093,0.035-0.297,0.106-0.355,0.19c-0.108,0.099-0.175,0.196-0.231,0.331c-0.091,0.197-0.199,0.399-0.375,0.532
			c-0.075,0.056-0.135,0.085-0.229,0.086c-0.07-0.015-0.165-0.01-0.235-0.056c-0.097-0.043-0.17-0.091-0.249-0.162
			c-0.139-0.104-0.256-0.16-0.426-0.196c-0.17-0.031-0.304-0.025-0.471,0.019c-0.167,0.049-0.288,0.116-0.418,0.232
			c-0.127,0.121-0.201,0.233-0.265,0.395c-0.082,0.185-0.175,0.356-0.334,0.486c-0.017,0.005-0.145,0.111-0.198,0.087
			c-0.017-0.008-0.045-0.009-0.061-0.031c0-0.001-0.005-0.004-0.006-0.005c-0.038-0.025-0.11-0.116-0.119-0.155
			c-0.079-0.173-0.095-0.35-0.096-0.539c0-0.002,0-0.006,0-0.009c-0.004-0.376,0.062-0.672,0.171-1.034
			c0.411-1.32,1.228-2.398,2.116-3.436c0.961-0.947,2.566-2.571,3.371-3.193c-0.794,0.23-2.473,0.835-4.292,2.31
			c-1.152,1.138-2.126,2.25-2.773,3.748c-0.194,0.516-0.341,1.024-0.358,1.577c0,0.001,0,0.013,0,0.016
			c0.001,0.492,0.063,0.865,0.266,1.316c0.189,0.379,0.394,0.633,0.745,0.874c0.012,0.008,0.085,0.054,0.09,0.055
			c0.401,0.219,0.754,0.271,1.208,0.208c0.451-0.089,0.755-0.266,1.087-0.581c0.186-0.194,0.321-0.385,0.435-0.593
			c0.033,0.012,0.061,0.027,0.097,0.039c0.332,0.095,0.593,0.117,0.936,0.062c0.397-0.082,0.662-0.23,0.955-0.508
			c0.271-0.287,0.427-0.568,0.562-0.913c0.715-0.206,1.156-0.161,1.957-0.655c0.492-0.356,0.745-0.719,0.967-1.281
			c0.096-0.332,0.383-2.083,0.039-2.306C51.775,20.043,51.384,21.819,51.129,22.034z"/>
		<path fill="#57AFE3" d="M49.66,9.184c-1.706-2.086-3.488-3.505-5.718-4.99c-1.894-1.21-3.711-2.196-5.748-3.131
			c-0.62-0.277-1.27-0.559-1.909-0.793c-0.155-0.057-0.312-0.115-0.47-0.164c-0.03-0.009-0.063-0.021-0.093-0.028
			c-0.061-0.015-0.148-0.047-0.208-0.054c-0.047-0.005-0.156-0.031-0.196-0.022C35.176,0,35.069,0.026,34.936,0.081
			c-0.054,0.034-0.175,0.085-0.214,0.136c-0.1,0.088-0.163,0.171-0.222,0.291c-0.06,0.133-0.084,0.241-0.086,0.387
			c0.003,0.11,0.018,0.195,0.055,0.299c0.26,0.794,0.437,1.701,0.709,2.551c0.036,0.083,0.069,0.205,0.1,0.295
			c0.105,0.298,0.537,1.368,0.683,1.525C36.26,6.088,36.558,6.495,37,6.862c0.011,0.055,0.018,0.108,0.037,0.168
			c0.067,0.154,0.115,0.32,0.211,0.46c0.149,0.251,0.316,0.485,0.49,0.714c-0.102,0.086-0.202,0.173-0.294,0.285
			c-0.126,0.16-0.198,0.295-0.246,0.495c-0.047,0.238-0.026,0.425,0.076,0.646c0.085,0.167,0.18,0.276,0.325,0.391
			c0.108,0.067,0.2,0.145,0.324,0.194c0.207,0.094,0.406,0.161,0.622,0.23c0.31,0.098,0.71,0.21,0.987,0.376
			c0.024,0.016,0.08,0.067,0.084,0.054c-0.004,0.017-0.008,0.036-0.009,0.048c-0.147,0.387-0.209,0.706-0.128,1.118
			c0.045,0.191,0.104,0.326,0.214,0.49c0.085,0.088,0.226,0.3,0.341,0.351c0.501,0.346,0.995,0.445,1.582,0.551
			c0.356,0.062,0.849,0.124,1.18,0.253c0.002,0,0.014,0.006,0.023,0.011c-0.007,0.018-0.011,0.037-0.018,0.051
			c-0.186,0.364-0.27,0.665-0.255,1.076c0.029,0.374,0.127,0.641,0.337,0.951c0.219,0.298,0.431,0.478,0.744,0.671
			c0.333,0.191,0.617,0.297,0.989,0.388c0.839,0.17,1.519,0.129,2.335-0.122c0.438-0.167,2.155-1.118,2.064-1.626
			c-0.078-0.005-1.797,0.959-2.218,1.058c-0.704,0.136-1.282,0.122-1.97-0.087c-0.271-0.09-0.487-0.189-0.722-0.353
			c-0.182-0.133-0.315-0.258-0.433-0.451c-0.088-0.154-0.126-0.281-0.126-0.458c0.012-0.207,0.072-0.351,0.177-0.528
			c0.04-0.099,0.184-0.334,0.179-0.442c0.034-0.179,0.03-0.318-0.02-0.494c-0.057-0.168-0.125-0.278-0.248-0.404
			c-0.097-0.072-0.209-0.195-0.331-0.24c-0.458-0.231-0.951-0.319-1.447-0.432c-0.306-0.073-0.789-0.18-1.034-0.383
			c-0.002-0.004-0.047-0.042-0.052-0.063c-0.002-0.009-0.008-0.024-0.006-0.034c0-0.112,0.048-0.233,0.091-0.334
			c0.035-0.139,0.151-0.371,0.13-0.52c0.01-0.193-0.01-0.346-0.074-0.529c-0.126-0.321-0.297-0.517-0.571-0.721
			c-0.396-0.274-0.767-0.411-1.198-0.568c0.079-0.061,0.149-0.126,0.214-0.215c0.09-0.133,0.134-0.239,0.167-0.396
			c0.027-0.158,0.024-0.274-0.01-0.43c-0.041-0.153-0.092-0.26-0.188-0.386c-0.039-0.061-0.221-0.306-0.383-0.537
			c-0.113-0.145-0.221-0.295-0.33-0.448c-0.001,0.008,0.001,0.016-0.001,0.024c0.001-0.009-0.002-0.017-0.001-0.026
			c-0.072-0.101-0.133-0.207-0.197-0.312c-0.071-0.082-0.126-0.173-0.174-0.269c-0.308-0.382-0.542-0.897-0.736-1.306
			c-0.019-0.034-0.038-0.071-0.055-0.106c-0.206-0.418-0.355-0.802-0.508-1.242c-0.031-0.087-0.059-0.176-0.089-0.263
			c-0.081-0.232-0.183-0.576-0.284-0.939c0.319,0.12,0.642,0.232,0.96,0.361c2.003,0.81,3.794,1.691,5.668,2.778
			c2.187,1.303,3.962,2.566,5.722,4.423c0.803,0.892,1.393,1.685,1.947,2.752c0.162,0.34,0.973,3.095,1.025,3.138
			c0.444-0.369-0.237-2.934-0.406-3.41C51.011,11.091,50.454,10.203,49.66,9.184z"/>
		<path fill="#F193BD" d="M71.274,0.532c-0.059-0.12-0.122-0.202-0.222-0.291c-0.039-0.051-0.16-0.102-0.214-0.136
			c-0.134-0.055-0.24-0.081-0.383-0.079c-0.04-0.008-0.149,0.017-0.196,0.022c-0.06,0.007-0.147,0.039-0.208,0.054
			c-0.03,0.007-0.063,0.019-0.093,0.028c-0.158,0.049-0.315,0.107-0.47,0.164c-0.638,0.234-1.289,0.516-1.909,0.793
			c-2.037,0.935-3.854,1.921-5.748,3.131c-2.23,1.485-4.012,2.905-5.718,4.99c-0.794,1.019-1.351,1.907-1.826,3.11
			c-0.168,0.476-0.849,3.042-0.406,3.41c0.052-0.043,0.863-2.798,1.025-3.138c0.554-1.067,1.144-1.859,1.947-2.752
			c1.76-1.857,3.535-3.119,5.722-4.423c1.874-1.087,3.664-1.967,5.668-2.778c0.318-0.129,0.641-0.241,0.96-0.361
			c-0.101,0.363-0.203,0.707-0.284,0.939c-0.03,0.087-0.059,0.175-0.089,0.263c-0.153,0.441-0.302,0.824-0.508,1.242
			c-0.017,0.035-0.036,0.072-0.055,0.106c-0.193,0.409-0.428,0.924-0.736,1.306c-0.048,0.096-0.103,0.187-0.174,0.269
			c-0.064,0.105-0.125,0.211-0.197,0.312c0.001,0.009-0.002,0.017-0.001,0.026c-0.001-0.009,0-0.016-0.001-0.024
			c-0.108,0.153-0.217,0.303-0.33,0.448c-0.161,0.231-0.343,0.476-0.383,0.537c-0.096,0.126-0.147,0.233-0.188,0.386
			c-0.035,0.156-0.038,0.272-0.01,0.43c0.033,0.157,0.077,0.263,0.167,0.396c0.065,0.089,0.135,0.154,0.214,0.215
			c-0.431,0.157-0.802,0.294-1.198,0.568c-0.274,0.204-0.445,0.4-0.571,0.721c-0.063,0.183-0.084,0.335-0.074,0.529
			c-0.021,0.149,0.095,0.381,0.13,0.52c0.043,0.101,0.091,0.222,0.091,0.334c0.002,0.01-0.004,0.025-0.006,0.034
			c-0.005,0.021-0.05,0.059-0.052,0.063c-0.244,0.204-0.728,0.311-1.034,0.383c-0.497,0.113-0.989,0.201-1.447,0.432
			c-0.122,0.045-0.234,0.168-0.331,0.24c-0.123,0.126-0.192,0.237-0.248,0.404c-0.05,0.176-0.054,0.315-0.02,0.494
			c-0.005,0.109,0.139,0.343,0.179,0.442c0.105,0.177,0.165,0.322,0.177,0.528c0.001,0.177-0.038,0.305-0.126,0.458
			c-0.118,0.193-0.251,0.319-0.433,0.451c-0.235,0.164-0.451,0.263-0.722,0.353c-0.688,0.209-1.267,0.223-1.97,0.087
			c-0.421-0.1-2.14-1.063-2.218-1.058c-0.092,0.508,1.626,1.459,2.064,1.626c0.816,0.251,1.496,0.292,2.335,0.122
			c0.372-0.09,0.656-0.196,0.989-0.388c0.313-0.194,0.524-0.374,0.744-0.671c0.21-0.31,0.308-0.576,0.337-0.951
			c0.015-0.411-0.069-0.712-0.255-1.076c-0.007-0.014-0.011-0.033-0.018-0.051c0.01-0.005,0.021-0.012,0.023-0.011
			c0.331-0.128,0.825-0.191,1.18-0.253c0.587-0.106,1.081-0.205,1.582-0.551c0.116-0.051,0.256-0.263,0.341-0.351
			c0.109-0.163,0.168-0.298,0.214-0.49c0.081-0.412,0.019-0.731-0.128-1.118c-0.001-0.012-0.005-0.03-0.009-0.048
			c0.003,0.013,0.059-0.038,0.084-0.054c0.277-0.167,0.677-0.279,0.987-0.376c0.216-0.069,0.415-0.136,0.622-0.23
			c0.123-0.049,0.215-0.128,0.324-0.194c0.145-0.115,0.24-0.225,0.325-0.391c0.101-0.221,0.122-0.407,0.076-0.646
			c-0.048-0.2-0.12-0.335-0.246-0.495c-0.092-0.111-0.192-0.198-0.294-0.285c0.174-0.23,0.341-0.463,0.49-0.714
			c0.096-0.141,0.144-0.307,0.211-0.46c0.019-0.06,0.026-0.113,0.037-0.168c0.442-0.367,0.741-0.774,1.04-1.298
			c0.145-0.157,0.578-1.227,0.683-1.525c0.032-0.089,0.064-0.212,0.1-0.295c0.272-0.85,0.449-1.756,0.709-2.551
			c0.037-0.104,0.052-0.189,0.055-0.299C71.358,0.773,71.334,0.665,71.274,0.532z"/>
		<path fill="#F193BD" d="M62.458,22.736c-0.647-1.498-1.621-2.61-2.773-3.748c-1.819-1.476-3.498-2.08-4.292-2.31
			c0.804,0.622,2.409,2.246,3.371,3.193c0.888,1.038,1.705,2.116,2.116,3.436c0.109,0.362,0.175,0.658,0.171,1.034
			c0,0.002,0,0.006,0,0.009c0,0.189-0.017,0.366-0.096,0.539c-0.009,0.039-0.08,0.13-0.119,0.155
			c-0.001,0.001-0.006,0.004-0.006,0.005c-0.016,0.022-0.044,0.023-0.061,0.031c-0.053,0.024-0.182-0.083-0.199-0.087
			c-0.159-0.13-0.253-0.301-0.334-0.486c-0.064-0.163-0.138-0.274-0.265-0.395c-0.13-0.116-0.251-0.183-0.418-0.232
			c-0.167-0.044-0.301-0.049-0.471-0.019c-0.17,0.037-0.288,0.092-0.426,0.196c-0.079,0.07-0.152,0.119-0.249,0.162
			c-0.07,0.046-0.165,0.041-0.235,0.056c-0.094-0.001-0.154-0.03-0.229-0.086c-0.176-0.134-0.285-0.335-0.375-0.532
			c-0.056-0.135-0.122-0.232-0.231-0.331c-0.059-0.083-0.262-0.155-0.355-0.19c-0.691-0.133-1.353-0.069-1.996-0.354
			c-0.368-0.18-0.564-0.396-0.768-0.748c-0.255-0.215-0.647-1.991-0.746-1.989c-0.343,0.223-0.056,1.975,0.039,2.306
			c0.221,0.561,0.475,0.925,0.967,1.281c0.801,0.494,1.242,0.449,1.957,0.655c0.135,0.345,0.292,0.626,0.562,0.913
			c0.293,0.279,0.559,0.426,0.955,0.508c0.343,0.055,0.604,0.033,0.936-0.062c0.035-0.011,0.063-0.027,0.097-0.039
			c0.113,0.207,0.249,0.398,0.435,0.593c0.332,0.316,0.636,0.493,1.087,0.581c0.454,0.063,0.807,0.01,1.208-0.208
			c0.005-0.001,0.079-0.047,0.09-0.055c0.351-0.241,0.556-0.494,0.745-0.874c0.202-0.451,0.265-0.824,0.266-1.316
			c0-0.003,0-0.015,0-0.016C62.798,23.76,62.652,23.252,62.458,22.736z"/>
	</g>
</g>
</svg>
